<?xml version="1.0" encoding="UTF-8"?>
<svg version="1.1" xmlns="http://www.w3.org/2000/svg" width="500" height="500">
<path d="M0 0 C1.89610207 1.00384704 3.80824227 1.96670071 5.72949219 2.92138672 C18.3110113 9.25776691 29.41829989 17.36428353 39.72167969 26.96826172 C41.80317313 28.9058221 43.94106829 30.74593662 46.11230469 32.58154297 C50.12244699 36.09739338 53.52847565 39.91459899 56.92480469 44.01904297 C57.34213867 44.50276367 57.75947266 44.98648438 58.18945312 45.48486328 C71.73821529 61.19454305 82.22248463 78.97290802 89.05517578 98.58154297 C89.6600487 100.27695318 90.31845857 101.95381696 91.01708984 103.61279297 C94.68514584 112.95848834 94.37826542 121.90744247 94.17480469 131.76904297 C94.12686977 134.84614444 94.08414205 137.92331617 94.04101562 141.00048828 C94.01894175 142.52923702 93.99679224 144.05798468 93.97454834 145.58673096 C93.94992523 147.2857254 93.94992523 147.2857254 93.92480469 149.01904297 C84.71940464 149.08850679 75.51409461 149.14183568 66.3084898 149.17447948 C62.0340977 149.19014569 57.75988471 149.21140117 53.4855957 149.24536133 C49.36183216 149.27792106 45.23824105 149.29588879 41.1143589 149.3036747 C39.53984677 149.30922433 37.96534424 149.32006128 36.39090538 149.33623314 C34.18804796 149.35796302 31.98590607 149.36101185 29.78295898 149.35961914 C27.90099068 149.36961189 27.90099068 149.36961189 25.98100281 149.37980652 C22.92480469 149.01904297 22.92480469 149.01904297 21.04592896 147.63711548 C19.59246064 145.53938449 19.10207612 143.67368851 18.53027344 141.18701172 C18.30025635 140.23020508 18.07023926 139.27339844 17.83325195 138.28759766 C17.47638306 136.76247559 17.47638306 136.76247559 17.11230469 135.20654297 C10.52118973 108.66088412 -3.38244273 88.0172702 -26.50488281 73.06591797 C-54.46326237 56.46612794 -90.74574513 52.49367755 -122.07519531 60.01904297 C-126.46316241 61.18895385 -130.7860143 62.52616548 -135.07519531 64.01904297 C-133.70269654 70.9959117 -131.60849967 77.38417341 -129.07519531 84.01904297 C-128.40806545 85.79380112 -127.74100831 87.56858705 -127.07536316 89.34390259 C-126.57826826 90.66963432 -126.08053266 91.99512596 -125.58222961 93.32040405 C-122.30425038 102.04775957 -119.10384996 110.80367259 -115.89480591 119.55654907 C-113.94880856 124.86367626 -112.00039353 130.1699153 -110.05175781 135.47607422 C-109.64842728 136.57439072 -109.24509674 137.67270721 -108.82954407 138.80430603 C-105.86236393 146.8818675 -102.88839016 154.9569096 -99.91113281 163.03076172 C-99.47872284 164.20340576 -99.04631287 165.3760498 -98.60079956 166.58422852 C-97.72176495 168.96799867 -96.84272645 171.35176738 -95.96368408 173.73553467 C-88.34533417 194.39607881 -80.75737675 215.0673872 -73.20733643 235.75299072 C-65.66570991 256.4154903 -58.08808956 277.06461068 -50.49708557 297.70901489 C-47.66711368 305.40625717 -44.84134283 313.10503607 -42.01660156 320.80419922 C-40.77203289 324.1955445 -39.52740106 327.58686659 -38.28274536 330.97817993 C-37.48422456 333.15434033 -36.68594176 335.33058809 -35.88790894 337.50692749 C-34.78432595 340.5164151 -33.67985628 343.52557591 -32.57519531 346.53466797 C-32.24898697 347.42497208 -31.92277863 348.31527618 -31.58668518 349.2325592 C-30.13518915 353.18402156 -28.67115242 357.12291268 -27.07519531 361.01904297 C-20.05737347 356.69647154 -14.06201139 351.66717062 -8.07519531 346.01904297 C-7.43453125 345.44283203 -6.79386719 344.86662109 -6.13378906 344.27294922 C9.90068481 329.31461453 15.50680872 306.33652783 20.92480469 286.01904297 C45.01480469 286.01904297 69.10480469 286.01904297 93.92480469 286.01904297 C93.92480469 326.41219592 93.92480469 326.41219592 86.92480469 341.01904297 C86.5084375 342.02322266 86.09207031 343.02740234 85.66308594 344.06201172 C84.51949075 346.77855185 83.25317018 349.38792785 81.92480469 352.01904297 C81.62912598 352.62216309 81.33344727 353.2252832 81.02880859 353.84667969 C72.66148489 370.84113063 62.16505209 385.50102814 48.92480469 399.01904297 C48.1784375 399.81568359 47.43207031 400.61232422 46.66308594 401.43310547 C33.30753834 415.40582255 16.65717896 425.59454987 -0.07519531 435.01904297 C0.41980469 436.23591797 0.91480469 437.45279297 1.42480469 438.70654297 C2.63863425 441.93578765 3.34767843 444.53033459 2.92480469 448.01904297 C0.75559412 450.18825354 -4.37074778 449.18174914 -7.39160156 449.19482422 C-9.361422 449.21513068 -11.3312301 449.23666271 -13.30102539 449.25927734 C-14.33643463 449.27047607 -15.37184387 449.2816748 -16.43862915 449.29321289 C-31.22136432 449.47033439 -45.58965796 449.6697551 -60.12304688 452.5637207 C-85.00375779 457.4602628 -112.41998617 455.61046065 -137.07519531 450.01904297 C-137.8107666 449.8556543 -138.54633789 449.69226563 -139.30419922 449.52392578 C-179.77237995 440.31539338 -218.68731814 417.15959405 -244.07519531 384.01904297 C-245.07854306 382.77535214 -246.08389093 381.53327328 -247.09082031 380.29248047 C-278.07519531 341.61661895 -278.07519531 341.61661895 -278.07519531 325.01904297 C-279.06519531 325.01904297 -280.05519531 325.01904297 -281.07519531 325.01904297 C-281.22214844 325.54151611 -281.36910156 326.06398926 -281.52050781 326.60229492 C-284.03115601 335.25519343 -287.07020542 343.71648218 -290.07519531 352.20654297 C-290.66152688 353.86786702 -291.24770613 355.52924483 -291.83374023 357.19067383 C-293.02002 360.55227727 -294.20784805 363.91332764 -295.39697266 367.27392578 C-296.87293539 371.44544771 -298.34376885 375.61875088 -299.81347656 379.79248047 C-302.01412065 386.03290208 -304.23234976 392.2669031 -306.46044922 398.49755859 C-307.66506382 401.86709129 -308.86390842 405.23863982 -310.06103516 408.61083984 C-311.86112493 413.67872288 -313.67263701 418.74241647 -315.49057007 423.80392456 C-316.21072719 425.81416815 -316.92741242 427.82565908 -317.64053345 429.83840942 C-318.64056455 432.65861846 -319.65321189 435.47398917 -320.66894531 438.28857422 C-320.96850632 439.14223572 -321.26806732 439.99589722 -321.57670593 440.87542725 C-321.86173477 441.65734436 -322.14676361 442.43926147 -322.44042969 443.24487305 C-322.68482788 443.92858475 -322.92922607 444.61229645 -323.18103027 445.31672668 C-324.07519531 447.01904297 -324.07519531 447.01904297 -327.07519531 449.01904297 C-329.61298647 449.2027792 -332.03909338 449.27147916 -334.57592773 449.24609375 C-335.33714432 449.2463858 -336.0983609 449.24667786 -336.88264465 449.24697876 C-339.39876707 449.2455854 -341.91459337 449.23002403 -344.43066406 449.21435547 C-346.17515399 449.21062536 -347.91964602 449.20777838 -349.66413879 449.20578003 C-354.25582665 449.19814342 -358.84738801 449.17849468 -363.43902588 449.15637207 C-368.12437224 449.13591425 -372.80973904 449.12677845 -377.49511719 449.11669922 C-386.68853215 449.09524882 -395.88185321 449.06111252 -405.07519531 449.01904297 C-405.42171516 436.40913038 -405.42171516 436.40913038 -403.19628906 430.72607422 C-402.77790771 429.62416748 -402.35952637 428.52226074 -401.9284668 427.38696289 C-401.46126221 426.21367432 -400.99405762 425.04038574 -400.51269531 423.83154297 C-400.01442715 422.53463721 -399.51849225 421.23683307 -399.0246582 419.93823242 C-397.95232455 417.12153057 -396.87151915 414.30827782 -395.78613281 411.49658203 C-393.07902921 404.44951254 -390.51889517 397.34817872 -387.93960571 390.25360107 C-386.3485935 385.88165687 -384.74883422 381.51291678 -383.14941406 377.14404297 C-382.81987228 376.24358246 -382.49033051 375.34312195 -382.15080261 374.41537476 C-377.84383832 362.64997402 -373.51802255 350.89149513 -369.19491577 339.13201904 C-363.21817049 322.87253731 -357.26588275 306.60423054 -351.32519531 290.33154297 C-345.90706175 275.4910358 -340.47989146 260.65405242 -335.01269531 245.83154297 C-334.7372287 245.08468231 -334.46176208 244.33782166 -334.177948 243.56832886 C-333.61759612 242.04913588 -333.05723739 240.52994542 -332.49687195 239.01075745 C-332.21592178 238.24907761 -331.93497162 237.48739777 -331.64550781 236.70263672 C-331.22088005 235.55147621 -331.22088005 235.55147621 -330.78767395 234.37705994 C-326.97994205 224.0522344 -323.18307123 213.72341581 -319.38769531 203.39404297 C-319.0112085 202.36947998 -318.63472168 201.34491699 -318.24682617 200.28930664 C-311.91230522 183.04780648 -305.60872537 165.79510291 -299.31143188 148.53997803 C-293.42679586 132.41885621 -287.49871091 116.31434761 -281.53897095 100.22085571 C-275.71893147 84.50162683 -269.94881155 68.7645247 -264.20019531 53.01904297 C-263.79653748 51.91375244 -263.39287964 50.80846191 -262.97698975 49.66967773 C-259.45032094 40.01293626 -255.9243726 30.35593879 -252.40969849 20.69482422 C-251.39992521 17.92035503 -250.3881755 15.14660964 -249.37591553 12.37304688 C-248.73475105 10.61385509 -248.09653911 8.85358803 -247.45849609 7.09326172 C-239.91728662 -13.55991138 -239.91728662 -13.55991138 -237.07519531 -14.98095703 C-234.87541671 -15.08831053 -232.67233334 -15.12986456 -230.4699707 -15.14208984 C-229.45263603 -15.1495372 -229.45263603 -15.1495372 -228.41474915 -15.15713501 C-226.1674397 -15.17176006 -223.92020081 -15.17855864 -221.67285156 -15.18408203 C-220.11347959 -15.18983256 -218.55410764 -15.1955903 -216.99473572 -15.20135498 C-213.72378204 -15.2118655 -210.45285296 -15.21770804 -207.18188477 -15.22119141 C-202.98730303 -15.22668077 -198.79304515 -15.25071771 -194.5985651 -15.27916336 C-191.37726384 -15.29777053 -188.15604095 -15.30299427 -184.93469048 -15.30452728 C-183.38809879 -15.30755797 -181.84150863 -15.31560049 -180.29496956 -15.32871246 C-178.13299899 -15.3457359 -175.97182454 -15.34390251 -173.80981445 -15.33740234 C-172.57896622 -15.34104797 -171.34811798 -15.3446936 -170.07997131 -15.34844971 C-167.07519531 -14.98095703 -167.07519531 -14.98095703 -165.27928162 -13.6461792 C-164.17388452 -12.11744181 -163.12164584 -10.55063282 -162.07519531 -8.98095703 C-160.36589844 -9.56103516 -160.36589844 -9.56103516 -158.62207031 -10.15283203 C-107.45691645 -27.14228697 -48.12044376 -25.75375183 0 0 Z M-133.57519531 10.39404297 C-134.47149658 10.5908667 -135.36779785 10.78769043 -136.29125977 10.99047852 C-142.48197339 12.43821857 -148.23845413 14.50661114 -154.07519531 17.01904297 C-152.93153413 20.31146841 -151.78489828 23.60285011 -150.63769531 26.89404297 C-150.31220703 27.83119141 -149.98671875 28.76833984 -149.65136719 29.73388672 C-149.1824707 31.07773438 -149.1824707 31.07773438 -148.70410156 32.44873047 C-148.41607666 33.27614746 -148.12805176 34.10356445 -147.83129883 34.95605469 C-147.1107162 37.04142265 -147.1107162 37.04142265 -146.07519531 39.01904297 C-141.44907867 38.38144649 -137.30130287 37.15335954 -132.88769531 35.64404297 C-96.48912689 23.99869274 -56.38299465 29.10914329 -22.32519531 45.58154297 C-20.22740921 46.7006968 -18.14256294 47.84464827 -16.07519531 49.01904297 C-14.69074219 49.79634766 -14.69074219 49.79634766 -13.27832031 50.58935547 C-5.12323049 55.46826759 1.9137843 61.6520851 8.92480469 68.01904297 C9.83617187 68.84533203 10.74753906 69.67162109 11.68652344 70.52294922 C26.68097916 84.81122963 35.4541039 102.60694061 41.92480469 122.01904297 C50.50480469 122.01904297 59.08480469 122.01904297 67.92480469 122.01904297 C59.59631053 88.70506633 40.8494232 58.56734716 12.92480469 38.01904297 C11.86519531 37.23271484 10.80558594 36.44638672 9.71386719 35.63623047 C-12.86570222 19.46605726 -39.63399553 10.32812882 -67.07519531 7.01904297 C-67.82446289 6.92550537 -68.57373047 6.83196777 -69.34570312 6.7355957 C-90.83116243 4.29760611 -112.52265568 5.75941449 -133.57519531 10.39404297 Z M-220.07519531 12.01904297 C-222.94307956 18.66045911 -225.57795715 24.94118985 -227.07519531 32.01904297 C-222.93632328 29.01395769 -218.93496888 25.94957784 -215.13769531 22.51904297 C-211.57752004 19.33399551 -207.79712838 16.73188582 -203.76269531 14.18310547 C-203.20582031 13.79896484 -202.64894531 13.41482422 -202.07519531 13.01904297 C-202.07519531 12.68904297 -202.07519531 12.35904297 -202.07519531 12.01904297 C-208.01519531 12.01904297 -213.95519531 12.01904297 -220.07519531 12.01904297 Z M-162.07519531 77.01904297 C-162.65527344 77.53853516 -163.23535156 78.05802734 -163.83300781 78.59326172 C-164.61417969 79.29064453 -165.39535156 79.98802734 -166.20019531 80.70654297 C-167.01746094 81.43615234 -167.83472656 82.16576172 -168.67675781 82.91748047 C-170.60875945 84.61034184 -172.56555561 86.23363433 -174.57519531 87.83154297 C-177.29675747 89.84086361 -177.29675747 89.84086361 -178.07519531 93.01904297 C-177.30414452 95.68399913 -176.45441902 98.21739056 -175.48925781 100.81201172 C-175.20102142 101.60980042 -174.91278503 102.40758911 -174.61581421 103.22955322 C-173.65216651 105.89161446 -172.67601982 108.54892382 -171.70019531 111.20654297 C-171.02205449 113.07407923 -170.3449903 114.94200676 -169.66894531 116.81030273 C-168.59871475 119.76793981 -167.52789743 122.72534703 -166.45391846 125.68162537 C-161.89170053 138.24681187 -157.45956149 150.85796327 -153.01446533 163.4649353 C-149.23933055 174.16625415 -145.41991202 184.84676598 -141.47644043 195.48727417 C-139.07379018 201.98473681 -136.8009871 208.52139331 -134.57519531 215.08154297 C-131.4952481 224.11079524 -128.33793806 233.10810898 -125.09863281 242.08154297 C-124.75628601 243.03169785 -124.41393921 243.98185272 -124.06121826 244.96080017 C-122.34899604 249.71166601 -120.63015975 254.4599731 -118.90136719 259.20483398 C-118.26893284 260.95660723 -117.63675921 262.70847463 -117.00488281 264.46044922 C-116.70850922 265.26647583 -116.41213562 266.07250244 -116.10678101 266.9029541 C-115.83838409 267.6509729 -115.56998718 268.3989917 -115.29345703 269.16967773 C-115.05714569 269.81945084 -114.82083435 270.46922394 -114.57736206 271.13868713 C-114.07519531 273.01904297 -114.07519531 273.01904297 -114.07519531 277.01904297 C-162.58519531 277.51404297 -162.58519531 277.51404297 -212.07519531 278.01904297 C-209.30863599 288.98646985 -209.30863599 288.98646985 -205.07519531 299.01904297 C-155.57519531 299.51404297 -155.57519531 299.51404297 -105.07519531 300.01904297 C-99.45046878 313.51838664 -99.45046878 313.51838664 -97.8269043 318.16381836 C-97.45979843 319.20852798 -97.09269257 320.25323761 -96.71446228 321.3296051 C-96.33721512 322.41434616 -95.95996796 323.49908722 -95.57128906 324.61669922 C-94.96354393 326.34997719 -94.96354393 326.34997719 -94.34352112 328.11827087 C-93.06326684 331.77154547 -91.78780011 335.42646825 -90.51269531 339.08154297 C-89.23300874 342.73982731 -87.95232391 346.39776028 -86.67115784 350.05552673 C-85.87868594 352.31911584 -85.08722597 354.58305958 -84.29698181 356.84742737 C-81.9407856 363.59035571 -79.53326847 370.31257414 -77.07519531 377.01904297 C-68.85399079 377.33757213 -60.80333286 377.20739173 -53.07519531 374.01904297 C-51.81600852 370.2414826 -52.53369312 369.06491531 -53.8984375 365.37133789 C-54.32348572 364.20708786 -54.74853394 363.04283783 -55.1864624 361.8433075 C-55.66482807 360.56197864 -56.14336931 359.28071533 -56.62207031 357.99951172 C-57.11362304 356.66349039 -57.60435052 355.32716517 -58.09429932 353.99055481 C-59.39715866 350.44309379 -60.7110389 346.89981273 -62.02728271 343.3572998 C-63.31913439 339.87514043 -64.60118514 336.38938244 -65.88378906 332.90380859 C-67.92887772 327.34952742 -69.97967535 321.79738672 -72.03417969 316.24658203 C-74.94386553 308.3835412 -77.83272076 300.5129581 -80.71582031 292.64013672 C-84.15941226 283.23946868 -87.61057182 273.84166882 -91.07519531 264.44873047 C-91.48165787 263.34672806 -91.88812042 262.24472565 -92.30690002 261.10932922 C-93.13633847 258.86075594 -93.96581166 256.61219547 -94.7953186 254.36364746 C-100.67647985 238.42046844 -106.55132906 222.47516516 -112.37597656 206.51123047 C-112.80119598 205.34594818 -113.22641541 204.18066589 -113.66452026 202.98007202 C-115.67302536 197.47426522 -117.6793413 191.96767244 -119.68261719 186.45996094 C-123.51633899 175.93283455 -127.40370525 165.43044659 -131.42597961 154.97369385 C-133.84412529 148.67930195 -136.10357678 142.33987317 -138.32128906 135.97216797 C-141.0906841 128.09403394 -143.99872029 120.26489153 -146.88891602 112.43041992 C-149.11632996 106.38827067 -151.3254767 100.3416747 -153.45800781 94.26513672 C-153.81846191 93.24572998 -154.17891602 92.22632324 -154.55029297 91.17602539 C-155.21715389 89.28457398 -155.87611645 87.39031306 -156.52587891 85.49291992 C-156.82059082 84.66107178 -157.11530273 83.82922363 -157.41894531 82.97216797 C-157.7930957 81.89177246 -157.7930957 81.89177246 -158.17480469 80.78955078 C-159.07214378 78.66703717 -159.07214378 78.66703717 -162.07519531 77.01904297 Z M-198.07519531 119.01904297 C-213.58929685 150.12599783 -219.10523639 182.50406023 -219.32519531 217.14404297 C-219.33462158 218.21444824 -219.34404785 219.28485352 -219.35375977 220.38769531 C-219.31131084 231.09603794 -218.10400855 241.21650393 -217.07519531 252.01904297 C-194.63519531 252.01904297 -172.19519531 252.01904297 -149.07519531 252.01904297 C-155.01486655 234.79399639 -160.9702969 217.59721619 -167.15158081 200.46087646 C-174.10470362 181.18045651 -180.97407074 161.87290634 -187.7109375 142.51586914 C-188.23725093 141.00388754 -188.76361594 139.49192389 -189.29003906 137.97998047 C-189.65610764 136.92841515 -189.65610764 136.92841515 -190.02957153 135.85560608 C-191.99398468 130.22479277 -194.01242322 124.61462614 -196.07519531 119.01904297 C-196.73519531 119.01904297 -197.39519531 119.01904297 -198.07519531 119.01904297 Z M-298.07519531 223.01904297 C-300.38823696 229.25818842 -302.69918187 235.49810777 -305.00878906 241.73852539 C-305.79185496 243.85360563 -306.57537021 245.96851956 -307.359375 248.08325195 C-311.24022749 258.55212448 -315.10618819 269.02260622 -318.79455566 279.56100464 C-322.31988816 289.60742589 -326.02404303 299.58959377 -329.70019531 309.58154297 C-330.09404419 310.65331787 -330.48789307 311.72509277 -330.89367676 312.8293457 C-336.26798148 327.45350398 -341.67534249 342.06446713 -347.19482422 356.63452148 C-349.5292551 362.81371713 -351.79104378 369.01158498 -353.97363281 375.24560547 C-356.082051 381.26710415 -358.26084467 387.25768947 -360.50488281 393.22998047 C-360.78867798 393.98627747 -361.07247314 394.74257446 -361.36486816 395.52178955 C-362.5235995 398.60671615 -363.68408286 401.69095195 -364.85058594 404.77294922 C-365.71888982 407.06950895 -366.58110316 409.36827895 -367.44238281 411.66748047 C-367.84068802 412.71263321 -367.84068802 412.71263321 -368.24703979 413.77890015 C-369.3282449 416.67656238 -370.07519531 418.89804629 -370.07519531 422.01904297 C-361.49519531 422.01904297 -352.91519531 422.01904297 -344.07519531 422.01904297 C-340.95391044 414.52795927 -337.95424465 407.14857025 -335.29003906 399.50732422 C-334.95222916 398.54812576 -334.61441925 397.58892731 -334.26637268 396.60066223 C-333.54887578 394.56266626 -332.83283236 392.52415806 -332.11816406 390.48516846 C-330.23479638 385.11239213 -328.34050497 379.74347118 -326.44628906 374.37451172 C-326.07075897 373.30950439 -325.69522888 372.24449707 -325.30831909 371.1472168 C-322.12248027 362.12449071 -318.86574037 353.12901255 -315.57519531 344.14404297 C-311.93410241 334.19151796 -308.35839937 324.21980407 -304.88769531 314.20654297 C-304.51257813 313.1258252 -304.13746094 312.04510742 -303.75097656 310.93164062 C-302.38574897 306.96718001 -301.09303533 303.09040304 -300.07519531 299.01904297 C-295.78519531 299.01904297 -291.49519531 299.01904297 -287.07519531 299.01904297 C-288.02249432 293.72995683 -288.98632171 288.44658002 -290.02832031 283.17529297 C-293.96657022 263.17166098 -295.74240166 243.34950307 -297.07519531 223.01904297 C-297.40519531 223.01904297 -297.73519531 223.01904297 -298.07519531 223.01904297 Z M-191.07519531 325.01904297 C-176.41092913 350.68150879 -151.5716093 366.6945175 -123.82519531 375.45654297 C-117.47783767 377.17105911 -111.60302265 377.3677083 -105.07519531 377.01904297 C-107.51059136 368.40630641 -110.49813756 360.00318061 -113.51269531 351.58154297 C-113.99533651 350.22680338 -114.47775953 348.87198604 -114.95996094 347.51708984 C-117.63606741 340.00691608 -120.35050507 332.51194115 -123.07519531 325.01904297 C-145.51519531 325.01904297 -167.95519531 325.01904297 -191.07519531 325.01904297 Z " fill="#131201" transform="translate(405.0751953125,32.98095703125)"/>
<path d="M0 0 C1.32 0.99 2.64 1.98 4 3 C3.67 4.65 3.34 6.3 3 8 C-29.34 8 -61.68 8 -95 8 C-95.33 8.99 -95.66 9.98 -96 11 C-98 8 -98 8 -98 5 C-65.66 5 -33.32 5 0 5 C0 3.35 0 1.7 0 0 Z " fill="#23220E" transform="translate(288,303)"/>
<path d="M0 0 C1.01733467 -0.00744736 1.01733467 -0.00744736 2.05522156 -0.01504517 C4.302531 -0.02967022 6.54976989 -0.0364688 8.79711914 -0.04199219 C10.35649112 -0.04774271 11.91586306 -0.05350046 13.47523499 -0.05926514 C16.74618866 -0.06977565 20.01711775 -0.07561819 23.28808594 -0.07910156 C27.48266767 -0.08459092 31.67692555 -0.10862787 35.8714056 -0.13707352 C39.09270687 -0.15568069 42.31392976 -0.16090443 45.53528023 -0.16243744 C47.08187191 -0.16546812 48.62846208 -0.17351064 50.17500114 -0.18662262 C52.33697171 -0.20364605 54.49814617 -0.20181267 56.66015625 -0.1953125 C57.89100449 -0.19895813 59.12185272 -0.20260376 60.38999939 -0.20635986 C63.39477539 0.16113281 63.39477539 0.16113281 65.24147034 1.48419189 C66.88370866 3.87205678 67.5954798 6.39434038 68.39477539 9.16113281 C67.40477539 9.49113281 66.41477539 9.82113281 65.39477539 10.16113281 C64.73477539 7.85113281 64.07477539 5.54113281 63.39477539 3.16113281 C40.29477539 3.16113281 17.19477539 3.16113281 -6.60522461 3.16113281 C-7.26522461 5.47113281 -7.92522461 7.78113281 -8.60522461 10.16113281 C-9.52119924 12.5435072 -10.55889576 14.8306731 -11.60522461 17.16113281 C-12.26522461 17.16113281 -12.92522461 17.16113281 -13.60522461 17.16113281 C-13.00960988 11.50279293 -11.13822531 6.2366927 -8.60522461 1.16113281 C-5.72243268 -0.28026315 -3.22135219 0.01788168 0 0 Z " fill="#13140C" transform="translate(174.605224609375,17.8388671875)"/>
<path d="M0 0 C0.66 0 1.32 0 2 0 C2.33 2.31 2.66 4.62 3 7 C26.43 7 49.86 7 74 7 C74 7.99 74 8.98 74 10 C64.79459996 10.06946382 55.58928992 10.12279271 46.38368511 10.15543652 C42.10929301 10.17110272 37.83508002 10.1923582 33.56079102 10.22631836 C29.43702747 10.25887809 25.31343637 10.27684582 21.18955421 10.28463173 C19.61504208 10.29018136 18.04053955 10.30101831 16.46610069 10.31719017 C14.26324328 10.33892005 12.06110138 10.34196888 9.8581543 10.34057617 C7.97618599 10.35056892 7.97618599 10.35056892 6.05619812 10.36076355 C3 10 3 10 1.08308411 8.70918274 C-0.67639081 5.93260782 -0.18043734 3.1877263 0 0 Z " fill="#38382E" transform="translate(425,172)"/>
<path d="M0 0 C24.09 0 48.18 0 73 0 C72.67 1.32 72.34 2.64 72 4 C62.9075974 3.89258793 53.81527866 3.77997287 44.72302437 3.66066074 C40.50141155 3.60542777 36.27979181 3.55200717 32.05810547 3.50268555 C27.98617286 3.45504751 23.91432574 3.40270491 19.84249496 3.34705925 C18.28674312 3.32663315 16.73096783 3.30792049 15.17517471 3.29092598 C13.00097403 3.26688756 10.82693544 3.2368324 8.65283203 3.20532227 C6.79418015 3.18200584 6.79418015 3.18200584 4.89797974 3.15821838 C2 3 2 3 0 2 C0 1.34 0 0.68 0 0 Z " fill="#2E2D17" transform="translate(210,355)"/>
<path d="M0 0 C0.495 1.485 0.495 1.485 1 3 C-1.16919854 5.16919854 -6.29556828 4.16269057 -9.31640625 4.17578125 C-11.2871218 4.19617982 -13.25782508 4.21779264 -15.22851562 4.24047852 C-16.78179565 4.25729172 -16.78179565 4.25729172 -18.36645508 4.27444458 C-34.34755532 4.46473211 -49.64784912 4.95191822 -65.34375 8.14453125 C-71.56748995 9.39771042 -77.66673362 9.40140421 -84 9 C-83.360625 8.690625 -82.72125 8.38125 -82.0625 8.0625 C-80.06389179 7.1654837 -80.06389179 7.1654837 -79 6 C-76.36871697 5.73510573 -73.76297073 5.53098436 -71.125 5.375 C-70.02478516 5.29765625 -70.02478516 5.29765625 -68.90234375 5.21875 C-65.60614972 5.01461412 -63.16266112 4.94577963 -60 6 C-60 5.34 -60 4.68 -60 4 C-57.03 4.495 -57.03 4.495 -54 5 C-54 4.34 -54 3.68 -54 3 C-47.23151303 1.23010559 -41.24903445 0.78410438 -34.27734375 1.0234375 C-33.29125626 1.04846344 -32.30516876 1.07348938 -31.28919983 1.09927368 C-28.17157926 1.18076737 -25.05466085 1.27762638 -21.9375 1.375 C-19.8105746 1.43331187 -17.68362125 1.49061346 -15.55664062 1.546875 C-10.37069747 1.68624005 -5.1853265 1.83937709 0 2 C0 1.34 0 0.68 0 0 Z " fill="#7C7C72" transform="translate(407,478)"/>
<path d="M0 0 C1.34972848 0.35862676 2.69597509 0.73053287 4.0390625 1.11328125 C5.47365979 1.49850934 6.90856118 1.88260656 8.34375 2.265625 C9.06401367 2.46140137 9.78427734 2.65717773 10.52636719 2.85888672 C13.72320453 3.70665469 16.9390634 4.44218255 20.1640625 5.17578125 C21.22625 5.418125 22.2884375 5.66046875 23.3828125 5.91015625 C24.135625 6.0803125 24.8884375 6.25046875 25.6640625 6.42578125 C25.6640625 7.08578125 25.6640625 7.74578125 25.6640625 8.42578125 C27.6440625 8.09578125 29.6240625 7.76578125 31.6640625 7.42578125 C31.6640625 8.08578125 31.6640625 8.74578125 31.6640625 9.42578125 C36.1190625 8.93078125 36.1190625 8.93078125 40.6640625 8.42578125 C40.6640625 9.08578125 40.6640625 9.74578125 40.6640625 10.42578125 C41.6540625 10.09578125 42.6440625 9.76578125 43.6640625 9.42578125 C47.34789019 9.29421598 50.15459835 9.25595987 53.6640625 10.42578125 C55.14372176 10.57151183 56.62810093 10.67241393 58.11328125 10.7421875 C58.96083984 10.78408203 59.80839844 10.82597656 60.68164062 10.86914062 C61.56271484 10.90845703 62.44378906 10.94777344 63.3515625 10.98828125 C64.24423828 11.03146484 65.13691406 11.07464844 66.05664062 11.11914062 C68.25896358 11.22513478 70.46139723 11.32720176 72.6640625 11.42578125 C72.6640625 11.75578125 72.6640625 12.08578125 72.6640625 12.42578125 C64.50009913 13.45473169 56.72909305 13.34601277 48.5390625 12.67578125 C47.35054688 12.58143799 46.16203125 12.48709473 44.9375 12.38989258 C27.83720957 10.94357046 9.53378998 8.31324298 -6.3359375 1.42578125 C-3.3359375 -0.57421875 -3.3359375 -0.57421875 0 0 Z " fill="#3E3929" transform="translate(250.3359375,474.57421875)"/>
<path d="M0 0 C38.115 0.495 38.115 0.495 77 1 C77.495 1.99 77.495 1.99 78 3 C52.26 3 26.52 3 0 3 C0 2.01 0 1.02 0 0 Z " fill="#B7B7AF" transform="translate(0,479)"/>
<path d="M0 0 C0.66 0 1.32 0 2 0 C2.99 3.465 2.99 3.465 4 7 C-20.09 7 -44.18 7 -69 7 C-69 6.34 -69 5.68 -69 5 C-34.845 4.505 -34.845 4.505 0 4 C0 2.68 0 1.36 0 0 Z " fill="#1E1D0F" transform="translate(255,280)"/>
<path d="M0 0 C0.66 0.66 1.32 1.32 2 2 C-0.90114874 2.96704958 -3.51634347 3.27595614 -6.54663086 3.54467773 C-21.37780187 4.88860779 -35.89241474 8.35085011 -50.171875 12.51953125 C-52 13 -52 13 -54 13 C-54 12.34 -54 11.68 -54 11 C-38.19342596 4.64184999 -17.24601409 -2.42299371 0 0 Z " fill="#242413" transform="translate(302,37)"/>
<path d="M0 0 C1.15999512 -0.00064453 2.31999023 -0.00128906 3.51513672 -0.00195312 C12.04344832 0.0503897 20.23693852 0.63723121 28.625 2.1875 C25.30577463 4.40031691 24.28702146 4.43503168 20.42578125 4.41796875 C19.3881665 4.41684082 18.35055176 4.41571289 17.28149414 4.41455078 C16.17797607 4.40149902 15.07445801 4.38844727 13.9375 4.375 C12.81657959 4.36710449 11.69565918 4.35920898 10.54077148 4.35107422 C-14.46639945 4.09610055 -14.46639945 4.09610055 -17.375 1.1875 C-11.58729786 -0.13207503 -5.91104234 -0.00334761 0 0 Z " fill="#2B2A1C" transform="translate(313.375,11.8125)"/>
<path d="M0 0 C0.66 0 1.32 0 2 0 C3.34356491 3.31906863 4.62158589 6.65254018 5.83984375 10.01953125 C6.18080078 10.95990234 6.52175781 11.90027344 6.87304688 12.86914062 C7.39995117 14.32610352 7.39995117 14.32610352 7.9375 15.8125 C11.84328516 26.86684286 11.84328516 26.86684286 16.1875 37.75 C17 40 17 40 17 44 C15.515 43.505 15.515 43.505 14 43 C12.91259766 40.79785156 12.91259766 40.79785156 11.9140625 37.890625 C11.54273193 36.83133789 11.17140137 35.77205078 10.78881836 34.68066406 C10.4047583 33.54854492 10.02069824 32.41642578 9.625 31.25 C8.82807773 28.95789667 8.0299121 26.66622524 7.23046875 24.375 C6.84810059 23.2715625 6.46573242 22.168125 6.07177734 21.03125 C4.45010143 16.44475156 2.64122735 11.9465279 0.77734375 7.453125 C-0.05196621 4.83600614 -0.15211045 2.72817453 0 0 Z " fill="#1D1C13" transform="translate(259,146)"/>
<path d="M0 0 C1.65 0 3.3 0 5 0 C5 0.66 5 1.32 5 2 C3.04775792 3.28406399 1.03659238 4.47941678 -1 5.625 C-2.11375 6.25664062 -3.2275 6.88828125 -4.375 7.5390625 C-5.674375 8.26222656 -5.674375 8.26222656 -7 9 C-6.65775391 10.04800781 -6.65775391 10.04800781 -6.30859375 11.1171875 C-6.02113281 12.02726562 -5.73367188 12.93734375 -5.4375 13.875 C-5.14746094 14.77992188 -4.85742188 15.68484375 -4.55859375 16.6171875 C-4 19 -4 19 -5 21 C-18.53 21 -32.06 21 -46 21 C-46 20.67 -46 20.34 -46 20 C-33.13 19.67 -20.26 19.34 -7 19 C-8.32 15.7 -9.64 12.4 -11 9 C-10 6 -10 6 -8.22265625 4.83203125 C-7.50980469 4.49558594 -6.79695313 4.15914063 -6.0625 3.8125 C-5.35222656 3.46832031 -4.64195312 3.12414062 -3.91015625 2.76953125 C-2 2 -2 2 0 2 C0 1.34 0 0.68 0 0 Z " fill="#272414" transform="translate(412,459)"/>
<path d="M0 0 C0.66 0 1.32 0 2 0 C1.40834761 5.36778933 0.11925761 10.05627216 -1.72265625 15.12109375 C-1.98759384 15.86585464 -2.25253143 16.61061554 -2.52549744 17.37794495 C-3.36499786 19.73338836 -4.21357919 22.08543753 -5.0625 24.4375 C-5.63667324 26.04340342 -6.21024699 27.64952131 -6.78320312 29.25585938 C-8.18188296 33.17308678 -9.58871094 37.08729867 -11 41 C-11.99 41 -12.98 41 -14 41 C-12.66666667 35.66666667 -11.33333333 30.33333333 -10 25 C-9.34 25 -8.68 25 -8 25 C-7.79375 23.845 -7.5875 22.69 -7.375 21.5 C-5.75520409 14.07990551 -2.75349671 7.05691768 0 0 Z " fill="#242410" transform="translate(98,423)"/>
<path d="M0 0 C0.66 0 1.32 0 2 0 C1.45173957 6.44206005 -0.14941262 9.58617839 -3 16 C-26.76 15.67 -50.52 15.34 -75 15 C-75 14.67 -75 14.34 -75 14 C-51.57 14 -28.14 14 -4 14 C-3.34 11.03 -2.68 8.06 -2 5 C-1.38103371 3.31503622 -0.73882078 1.63596029 0 0 Z " fill="#292817" transform="translate(83,465)"/>
<path d="M0 0 C0 0.66 0 1.32 0 2 C-1.14855469 2.17015625 -2.29710937 2.3403125 -3.48046875 2.515625 C-12.11239644 3.84526239 -20.30177017 5.43506646 -28.59375 8.23046875 C-31 9 -31 9 -33 9 C-33 9.66 -33 10.32 -33 11 C-33.66 11 -34.32 11 -35 11 C-35.33 10.01 -35.66 9.02 -36 8 C-31.60593065 4.97631445 -27.14942879 3.72044076 -22.0625 2.375 C-20.88397461 2.05015625 -20.88397461 2.05015625 -19.68164062 1.71875 C-12.78638495 -0.15075865 -7.15338843 -1.28760992 0 0 Z " fill="#212012" transform="translate(301,88)"/>
<path d="M0 0 C3.67949315 3.23795398 5.76068744 6.90157784 7.875 11.25 C8.21724609 11.94512695 8.55949219 12.64025391 8.91210938 13.35644531 C11.34393712 18.39897827 13.51198828 23.51736878 15.5 28.75 C15.88260986 29.75015137 15.88260986 29.75015137 16.27294922 30.77050781 C17.49019175 34.0967832 18 36.40095538 18 40 C17.34 40 16.68 40 16 40 C14.67812005 36.62859976 13.36919755 33.25231059 12.0625 29.875 C11.50272461 28.44800781 11.50272461 28.44800781 10.93164062 26.9921875 C9.13867994 22.34018141 7.5300493 17.9976077 7 13 C6.34 13 5.68 13 5 13 C4.15930585 11.39967863 3.32768495 9.79458829 2.5 8.1875 C1.80390625 6.84751953 1.80390625 6.84751953 1.09375 5.48046875 C0 3 0 3 0 0 Z " fill="#434339" transform="translate(478,101)"/>
<path d="M0 0 C5.62325477 -0.14838088 11.24536946 -0.25723031 16.87011719 -0.32958984 C18.78307951 -0.35975354 20.69590363 -0.40069161 22.60839844 -0.45263672 C25.35907048 -0.52547383 28.10791428 -0.5594588 30.859375 -0.5859375 C31.71368103 -0.61690521 32.56798706 -0.64787292 33.44818115 -0.67977905 C35.78159802 -0.68110002 37.74906839 -0.61688531 40 0 C42.63378906 2.84912109 42.63378906 2.84912109 44 6 C43.67 6.99 43.34 7.98 43 9 C42.34 9 41.68 9 41 9 C40.34 6.69 39.68 4.38 39 2 C25.8 2 12.6 2 -1 2 C-0.67 1.34 -0.34 0.68 0 0 Z " fill="#2B2B1A" transform="translate(199,19)"/>
<path d="M0 0 C0.99 0.33 1.98 0.66 3 1 C3 1.99 3 2.98 3 4 C3.60972656 4.25201172 4.21945312 4.50402344 4.84765625 4.76367188 C7.33197531 6.19068999 8.07359824 7.29177534 9.4375 9.78125 C9.85596191 10.53664063 10.27442383 11.29203125 10.70556641 12.0703125 C11.13272949 12.87210938 11.55989258 13.67390625 12 14.5 C12.44134277 15.31210938 12.88268555 16.12421875 13.33740234 16.9609375 C21 31.25303771 21 31.25303771 21 36 C18 35 18 35 16.23828125 31.640625 C15.58849903 30.18055389 14.94708129 28.71674169 14.3125 27.25 C11.22569155 20.37463802 7.76973403 14.04827623 3.6640625 7.734375 C2.12379433 5.20341791 1.0045399 2.78024174 0 0 Z " fill="#1B1B10" transform="translate(449,102)"/>
<path d="M0 0 C0.33 0 0.66 0 1 0 C2.5933593 11.02705803 -2.09554633 20.93542778 -6 31 C-6.44730469 32.15886719 -6.89460938 33.31773437 -7.35546875 34.51171875 C-8.21431327 36.68518449 -9.08834836 38.84827563 -10 41 C-10.99 40.67 -11.98 40.34 -13 40 C-12.78384033 39.46334717 -12.56768066 38.92669434 -12.3449707 38.3737793 C-7.3007748 25.75458111 -3.14317415 13.22248743 0 0 Z " fill="#403E2C" transform="translate(498,343)"/>
<path d="M0 0 C2 1 2 1 2.8515625 3.50390625 C3.10679687 4.51324219 3.36203125 5.52257812 3.625 6.5625 C4.01558594 8.08037109 4.01558594 8.08037109 4.4140625 9.62890625 C4.60742188 10.41136719 4.80078125 11.19382813 5 12 C4.01 12 3.02 12 2 12 C1.67 10.02 1.34 8.04 1 6 C0.34 6 -0.32 6 -1 6 C-1.25523437 6.82757813 -1.51046875 7.65515625 -1.7734375 8.5078125 C-3.15257503 12.43440151 -4.83605302 16.12257463 -6.625 19.875 C-6.94984375 20.56335938 -7.2746875 21.25171875 -7.609375 21.9609375 C-8.40323472 23.64205219 -9.20119558 25.32122921 -10 27 C-10.66 27 -11.32 27 -12 27 C-11.63701711 20.21501221 -8.78845919 15.37333935 -5.4375 9.5625 C-4.91736328 8.64017578 -4.39722656 7.71785156 -3.86132812 6.76757812 C-2.58401304 4.50591012 -1.29680323 2.25053176 0 0 Z " fill="#1B1B10" transform="translate(208,146)"/>
<path d="M0 0 C0.33 0 0.66 0 1 0 C0.73958333 1.98567708 0.47916667 3.97135417 0.21875 5.95703125 C-0.053233 8.15471706 -0.053233 8.15471706 0 11 C1.65 10.01 3.3 9.02 5 8 C3.60089587 12.52698636 1.4384826 14.75155982 -2.125 17.8125 C-3.03507813 18.60269531 -3.94515625 19.39289063 -4.8828125 20.20703125 C-5.58148438 20.79871094 -6.28015625 21.39039062 -7 22 C-8 20 -8 20 -7.48681641 18.04467773 C-7.19468262 17.26552002 -6.90254883 16.4863623 -6.6015625 15.68359375 C-6.28703125 14.83732422 -5.9725 13.99105469 -5.6484375 13.11914062 C-5.31070313 12.23419922 -4.97296875 11.34925781 -4.625 10.4375 C-4.295 9.54869141 -3.965 8.65988281 -3.625 7.74414062 C-1.15049794 1.15049794 -1.15049794 1.15049794 0 0 Z " fill="#252316" transform="translate(180,52)"/>
<path d="M0 0 C0.66 0 1.32 0 2 0 C1.67 2.31 1.34 4.62 1 7 C10.24 7 19.48 7 29 7 C29 7.66 29 8.32 29 9 C18.44 9 7.88 9 -3 9 C-2.67 6.69 -2.34 4.38 -2 2 C-1.34 2 -0.68 2 0 2 C0 1.34 0 0.68 0 0 Z " fill="#828278" transform="translate(34,448)"/>
<path d="M0 0 C0.66 0.66 1.32 1.32 2 2 C-3.0217348 11.91560135 -8.07219636 21.26001884 -15 30 C-15.66 29.67 -16.32 29.34 -17 29 C-15.56627922 26.04192335 -13.98168915 23.22519338 -12.28515625 20.41015625 C-11.50301758 19.10981445 -11.50301758 19.10981445 -10.70507812 17.78320312 C-10.16302734 16.88537109 -9.62097656 15.98753906 -9.0625 15.0625 C-8.25522461 13.72155273 -8.25522461 13.72155273 -7.43164062 12.35351562 C-6.42523624 10.68196604 -5.418226 9.01078096 -4.41040039 7.34008789 C-2.93694302 4.89537803 -1.46786627 2.44807022 0 0 Z " fill="#212015" transform="translate(485,383)"/>
<path d="M0 0 C0.66 0 1.32 0 2 0 C4.40797172 5.56843461 4.41913263 11.03467051 4 17 C3.67 17.66 3.34 18.32 3 19 C3.66 19 4.32 19 5 19 C5.33 23.62 5.66 28.24 6 33 C5.01 33.495 5.01 33.495 4 34 C2.28481477 26.48475279 1.44423815 19.05504917 0.875 11.375 C0.78863281 10.27542969 0.70226562 9.17585938 0.61328125 8.04296875 C0.40349336 5.36234576 0.19916992 2.68142918 0 0 Z " fill="#222212" transform="translate(108,268)"/>
<path d="M0 0 C2.97201536 4.45802304 4.37927051 9.39462418 6.125 14.4375 C6.49753906 15.48744141 6.87007812 16.53738281 7.25390625 17.61914062 C7.60582031 18.63041016 7.95773438 19.64167969 8.3203125 20.68359375 C8.64273926 21.60712646 8.96516602 22.53065918 9.29736328 23.48217773 C10 26 10 26 10 30 C9.34 30 8.68 30 8 30 C-1.71692745 5.15078236 -1.71692745 5.15078236 0 0 Z " fill="#17160A" transform="translate(234,145)"/>
<path d="M0 0 C2.73711062 2.42978059 4.21628549 5.01163689 5.8828125 8.25390625 C6.41003906 9.27291016 6.93726563 10.29191406 7.48046875 11.34179688 C8.02316406 12.40462891 8.56585938 13.46746094 9.125 14.5625 C9.95064453 16.16254883 9.95064453 16.16254883 10.79296875 17.79492188 C12.54290923 21.18946243 14.29205243 24.58410486 16 28 C13.0060967 27.0812477 11.34347523 26.4519243 9.42260742 23.92456055 C8.98795166 23.08707275 8.5532959 22.24958496 8.10546875 21.38671875 C7.62529297 20.46826172 7.14511719 19.54980469 6.65039062 18.60351562 C6.16763672 17.64123047 5.68488281 16.67894531 5.1875 15.6875 C4.68541016 14.73681641 4.18332031 13.78613281 3.66601562 12.80664062 C-0.32149871 5.04319434 -0.32149871 5.04319434 0 0 Z " fill="#1A190E" transform="translate(131,364)"/>
<path d="M0 0 C4.13750488 2.06875244 5.14328127 8.67151159 6.6875 12.8125 C7.11611328 13.91916016 7.54472656 15.02582031 7.98632812 16.16601562 C8.38658203 17.23142578 8.78683594 18.29683594 9.19921875 19.39453125 C9.56877686 20.37268799 9.93833496 21.35084473 10.3190918 22.35864258 C11.0217097 25.08421557 10.9661649 26.39801666 10 29 C10 28.34 10 27.68 10 27 C9.34 27 8.68 27 8 27 C6.68094674 23.60667609 5.37092599 20.20993431 4.0625 16.8125 C3.68931641 15.85279297 3.31613281 14.89308594 2.93164062 13.90429688 C2.57392578 12.97294922 2.21621094 12.04160156 1.84765625 11.08203125 C1.51773682 10.22843018 1.18781738 9.3748291 0.84790039 8.49536133 C-0.00144845 5.99573723 -0.62511413 3.61340077 -1 1 C-0.67 0.67 -0.34 0.34 0 0 Z " fill="#1D1B0F" transform="translate(315,227)"/>
<path d="M0 0 C3.17538332 0.34021964 4.02276865 1.02466604 6.25 3.4375 C8 6 8 6 8 8 C8.66 8 9.32 8 10 8 C13 12.38461538 13 12.38461538 13 15 C13.66 15.33 14.32 15.66 15 16 C18 21.30769231 18 21.30769231 18 25 C13.94457407 23.64819136 13.13600758 21.07740506 11.25 17.5 C8.32001968 12.1317987 5.16347223 7.30008588 1.25 2.57421875 C0 1 0 1 0 0 Z " fill="#191A0D" transform="translate(401,124)"/>
<path d="M0 0 C2.04214023 2.56988433 3.57590371 4.93297296 4.75 8 C5.01296875 8.66 5.2759375 9.32 5.546875 10 C6.07564333 12.33387402 5.7428952 13.75123614 5 16 C2.1673866 14.5836933 1.98292167 12.85502707 0.875 9.9375 C0.52179688 9.01839844 0.16859375 8.09929687 -0.1953125 7.15234375 C-0.46085938 6.44207031 -0.72640625 5.73179688 -1 5 C-1.55429688 5.433125 -2.10859375 5.86625 -2.6796875 6.3125 C-3.76636719 7.1478125 -3.76636719 7.1478125 -4.875 8 C-5.95394531 8.8353125 -5.95394531 8.8353125 -7.0546875 9.6875 C-9 11 -9 11 -11 11 C-10.68276924 7.94918504 -10.11098219 7.09333887 -7.71484375 5.078125 C-6.34005859 4.17320313 -6.34005859 4.17320313 -4.9375 3.25 C-4.01839844 2.63640625 -3.09929687 2.0228125 -2.15234375 1.390625 C-1.44207031 0.93171875 -0.73179687 0.4728125 0 0 Z " fill="#2D2418" transform="translate(245,106)"/>
<path d="M0 0 C8.91 0 17.82 0 27 0 C27 0.66 27 1.32 27 2 C23.9616511 2.88249707 21.24538365 3.12860071 18.0859375 3.1328125 C17.16039062 3.13410156 16.23484375 3.13539062 15.28125 3.13671875 C14.3221875 3.13285156 13.363125 3.12898438 12.375 3.125 C10.92480469 3.13080078 10.92480469 3.13080078 9.4453125 3.13671875 C8.06085938 3.13478516 8.06085938 3.13478516 6.6484375 3.1328125 C5.80458496 3.13168457 4.96073242 3.13055664 4.09130859 3.12939453 C2 3 2 3 0 2 C0 1.34 0 0.68 0 0 Z " fill="#2A2A21" transform="translate(183,42)"/>
<path d="M0 0 C2.52361441 4.84261143 4.30225243 9.94633949 6.1875 15.0625 C6.56841797 16.06861328 6.94933594 17.07472656 7.34179688 18.11132812 C7.87450195 19.55862305 7.87450195 19.55862305 8.41796875 21.03515625 C8.74563232 21.9156665 9.0732959 22.79617676 9.41088867 23.70336914 C10 26 10 26 9 29 C6.30779527 27.65389764 6.2718495 26.4808103 5.30859375 23.66796875 C4.85129883 22.34635742 4.85129883 22.34635742 4.38476562 20.99804688 C4.07216797 20.07056641 3.75957031 19.14308594 3.4375 18.1875 C3.12103516 17.27162109 2.80457031 16.35574219 2.47851562 15.41210938 C-1.35857953 4.22669187 -1.35857953 4.22669187 0 0 Z " fill="#1D1C0F" transform="translate(283,355)"/>
<path d="M0 0 C0.66 0 1.32 0 2 0 C6.39453125 11.71875 6.39453125 11.71875 7.18994141 13.84765625 C7.74271173 15.31637934 8.30259957 16.78243846 8.86865234 18.24609375 C11 23.78935185 11 23.78935185 11 26 C10.01 26 9.02 26 8 26 C6.65613444 22.4205283 5.32676186 18.83584287 4 15.25 C3.6184375 14.23421875 3.236875 13.2184375 2.84375 12.171875 C2.4828125 11.1921875 2.121875 10.2125 1.75 9.203125 C1.24726563 7.85202637 1.24726563 7.85202637 0.734375 6.47363281 C0 4 0 4 0 0 Z " fill="#272612" transform="translate(307,277)"/>
<path d="M0 0 C3.99939332 3.51746219 5.05958482 8.02277438 6.75 12.9375 C7.24306641 14.2977832 7.24306641 14.2977832 7.74609375 15.68554688 C8.05160156 16.56146484 8.35710937 17.43738281 8.671875 18.33984375 C8.9512793 19.13769287 9.23068359 19.93554199 9.51855469 20.75756836 C10.04725561 23.22010281 9.80512544 24.64025422 9 27 C4.17496693 19.76245039 1.16205961 10.38295506 -1 2 C-0.67 1.34 -0.34 0.68 0 0 Z " fill="#1F1C12" transform="translate(360,350)"/>
<path d="M0 0 C0.33 0 0.66 0 1 0 C0.43787663 5.97340739 -0.81563475 11.22629929 -2.8125 16.875 C-3.06064453 17.63296875 -3.30878906 18.3909375 -3.56445312 19.171875 C-5.47680138 24.64128834 -5.47680138 24.64128834 -8.19921875 26.5078125 C-9.09060547 26.75144531 -9.09060547 26.75144531 -10 27 C-8.27172783 20.6933226 -6.16302164 14.55894941 -3.875 8.4375 C-3.60929199 7.72271484 -3.34358398 7.00792969 -3.06982422 6.27148438 C-1.12600343 1.12600343 -1.12600343 1.12600343 0 0 Z " fill="#212114" transform="translate(83,316)"/>
<path d="M0 0 C0.99 0 1.98 0 3 0 C2.62929248 5.28258221 1.94625724 8.56602873 -0.9453125 13.125 C-2.85933274 16.52770265 -3.88473185 20.27399051 -5 24 C-5.66 23.67 -6.32 23.34 -7 23 C-6.42389687 17.45044957 -4.97901452 12.73970503 -2.9375 7.5625 C-2.65583984 6.83095703 -2.37417969 6.09941406 -2.08398438 5.34570312 C-1.39586753 3.56126454 -0.69885394 1.78026095 0 0 Z " fill="#16160B" transform="translate(52,328)"/>
<path d="M0 0 C0.99 0 1.98 0 3 0 C4.00777029 2.74737377 5.00641446 5.49749952 6 8.25 C6.28617187 9.02730469 6.57234375 9.80460937 6.8671875 10.60546875 C7.27324219 11.73662109 7.27324219 11.73662109 7.6875 12.890625 C8.06455078 13.92751465 8.06455078 13.92751465 8.44921875 14.98535156 C9 17 9 17 9 21 C9.99 21.33 10.98 21.66 12 22 C10.68 22.33 9.36 22.66 8 23 C4.66839495 15.45450713 1.94202345 8.02071473 0 0 Z " fill="#1A1A0D" transform="translate(319,390)"/>
<path d="M0 0 C0.66 0.33 1.32 0.66 2 1 C0.5102402 9.49163085 -2.68571262 17.0894839 -6 25 C-6.99 24.67 -7.98 24.34 -9 24 C-6.03 16.08 -3.06 8.16 0 0 Z " fill="#262515" transform="translate(67,358)"/>
<path d="M0 0 C0.33 0 0.66 0 1 0 C0.69944459 5.81073784 -0.44042983 10.99573351 -2.3125 16.5 C-2.72113281 17.7065625 -3.12976563 18.913125 -3.55078125 20.15625 C-4.26814453 21.56390625 -4.26814453 21.56390625 -5 23 C-7.09057617 23.67773438 -7.09057617 23.67773438 -9 24 C-8.06815947 21.12305544 -7.12975199 18.24853444 -6.1875 15.375 C-5.79594727 14.16263672 -5.79594727 14.16263672 -5.39648438 12.92578125 C-3.90936817 8.40935427 -2.26420528 4.20203863 0 0 Z " fill="#212013" transform="translate(95,283)"/>
<path d="M0 0 C0.66 0 1.32 0 2 0 C1.35983027 5.13756468 -0.19700333 9.58790181 -2.0625 14.375 C-2.34416016 15.11105469 -2.62582031 15.84710938 -2.91601562 16.60546875 C-3.60566618 18.4055736 -4.30213932 20.2030621 -5 22 C-5.99 22 -6.98 22 -8 22 C-6.6552417 17.13385136 -5.13668904 12.38272931 -3.4375 7.625 C-3.00308594 6.40039062 -2.56867187 5.17578125 -2.12109375 3.9140625 C-1 1 -1 1 0 0 Z " fill="#1F1F11" transform="translate(52,400)"/>
<path d="M0 0 C0.66 0 1.32 0 2 0 C1.40662822 2.73191981 0.80078717 5.4600447 0.1875 8.1875 C0.02185547 8.95642578 -0.14378906 9.72535156 -0.31445312 10.51757812 C-1.28959692 14.80453102 -2.27872304 18.43591286 -5 22 C-5.66 22 -6.32 22 -7 22 C-6.42208517 16.89070756 -5.2819361 12.48388389 -3.5 7.625 C-3.0565625 6.40039062 -2.613125 5.17578125 -2.15625 3.9140625 C-1 1 -1 1 0 0 Z " fill="#1D1C0D" transform="translate(102,341)"/>
<path d="M0 0 C0.33 0 0.66 0 1 0 C1 7.26 1 14.52 1 22 C-1.69970934 20.65014533 -1.87196233 19.43883133 -2.875 16.625 C-4.72806144 10.30816003 -2.74501029 5.75249169 0 0 Z " fill="#37361A" transform="translate(110,241)"/>
<path d="M0 0 C0.66 0 1.32 0 2 0 C1.3440206 5.63587931 -0.56032841 10.60988342 -2.5625 15.875 C-2.89185547 16.75414062 -3.22121094 17.63328125 -3.56054688 18.5390625 C-4.36886614 20.69458053 -5.18212294 22.84809441 -6 25 C-6.33 25 -6.66 25 -7 25 C-7.4680487 18.7732807 -5.88302882 14.27164819 -3.5 8.5625 C-3.16613281 7.73556641 -2.83226562 6.90863281 -2.48828125 6.05664062 C-1.6696176 4.03337188 -0.83628674 2.01604838 0 0 Z " fill="#383828" transform="translate(7,452)"/>
<path d="M0 0 C0.66 0.33 1.32 0.66 2 1 C2 7.6 2 14.2 2 21 C1.01 20.67 0.02 20.34 -1 20 C-1.02888514 16.85418577 -1.04675923 13.70840531 -1.0625 10.5625 C-1.07087891 9.66466797 -1.07925781 8.76683594 -1.08789062 7.84179688 C-1.09111328 6.98779297 -1.09433594 6.13378906 -1.09765625 5.25390625 C-1.10551147 4.06776733 -1.10551147 4.06776733 -1.11352539 2.85766602 C-1 1 -1 1 0 0 Z " fill="#1D1E12" transform="translate(185,263)"/>
<path d="M0 0 C3 1 3 1 3.99902344 2.82592773 C4.28293945 3.60395752 4.56685547 4.3819873 4.859375 5.18359375 C5.32537109 6.45106445 5.32537109 6.45106445 5.80078125 7.74414062 C6.11402344 8.63294922 6.42726563 9.52175781 6.75 10.4375 C7.07871094 11.32244141 7.40742188 12.20738281 7.74609375 13.11914062 C9.5063613 17.99515601 9.5063613 17.99515601 10 20 C9.67 20.66 9.34 21.32 9 22 C6.7092265 19.9222009 5.46785572 18.20699007 4.39453125 15.3125 C4.13349609 14.61382812 3.87246094 13.91515625 3.60351562 13.1953125 C3.34248047 12.47085938 3.08144531 11.74640625 2.8125 11 C2.40354492 9.91332031 2.40354492 9.91332031 1.98632812 8.8046875 C0.86189609 5.74983957 0 3.2801863 0 0 Z " fill="#1E1E0F" transform="translate(305,203)"/>
<path d="M0 0 C6.93 0 13.86 0 21 0 C21 0.66 21 1.32 21 2 C24.465 1.505 24.465 1.505 28 1 C28 1.66 28 2.32 28 3 C18.58786748 3.12873737 9.37912587 2.79822348 0 2 C0 1.34 0 0.68 0 0 Z " fill="#252513" transform="translate(304,86)"/>
<path d="M0 0 C-2.65968898 2.65968898 -5.51415198 3.78291897 -8.9375 5.3125 C-12.26554528 7.14632087 -14.35928055 9.2915698 -17 12 C-19.6875 13.875 -19.6875 13.875 -22 15 C-22.66 14.67 -23.32 14.34 -24 14 C-6.60560748 -2.20186916 -6.60560748 -2.20186916 0 0 Z " fill="#111109" transform="translate(209,45)"/>
<path d="M0 0 C-2.71476515 1.80984343 -4.31091094 2.49364438 -7.37890625 3.2890625 C-8.63670898 3.61777344 -8.63670898 3.61777344 -9.91992188 3.953125 C-11.22799805 4.28570312 -11.22799805 4.28570312 -12.5625 4.625 C-13.87637695 4.96917969 -13.87637695 4.96917969 -15.21679688 5.3203125 C-21.71058873 7 -21.71058873 7 -24 7 C-24 6.34 -24 5.68 -24 5 C-21.27606322 4.00154631 -18.55056881 3.0084205 -15.8203125 2.02734375 C-13.78273383 1.28512327 -11.7607722 0.49954262 -9.75 -0.3125 C-6.25263517 -1.18684121 -3.5044939 -0.70089878 0 0 Z " fill="#323220" transform="translate(272,43)"/>
<path d="M0 0 C3.79153889 3.5962376 6.85959151 7.32092706 9.8125 11.625 C10.21919922 12.19734375 10.62589844 12.7696875 11.04492188 13.359375 C14 17.63058036 14 17.63058036 14 21 C13.34 21 12.68 21 12 21 C10.42095822 18.88184508 8.94603522 16.7685122 7.5 14.5625 C4.87971854 10.13041595 4.87971854 10.13041595 1 7 C0.59270772 4.67843403 0.25561323 2.3431213 0 0 Z " fill="#232316" transform="translate(463,79)"/>
<path d="M0 0 C1.69183153 0.59994026 3.35439405 1.28292031 5 2 C6.08796875 2.4021875 7.1759375 2.804375 8.296875 3.21875 C9.43640625 3.6415625 10.5759375 4.064375 11.75 4.5 C12.89984375 4.9228125 14.0496875 5.345625 15.234375 5.78125 C18 7 18 7 19 9 C15.81889675 10.05830736 14.19645871 9.99308846 11.14453125 8.63671875 C10.44005859 8.32669922 9.73558594 8.01667969 9.00976562 7.69726562 C8.28466797 7.36404297 7.55957031 7.03082031 6.8125 6.6875 C6.07580078 6.36587891 5.33910156 6.04425781 4.58007812 5.71289062 C-0.8628251 3.27434981 -0.8628251 3.27434981 -2 1 C-1.34 0.67 -0.68 0.34 0 0 Z " fill="#1D1D10" transform="translate(228,466)"/>
<path d="M0 0 C0.66 0 1.32 0 2 0 C0.62820313 7.48252838 -1.92163279 14.05604954 -5 21 C-5.66 21 -6.32 21 -7 21 C-5.62820313 13.51747162 -3.07836721 6.94395046 0 0 Z " fill="#2A2A15" transform="translate(103,261)"/>
<path d="M0 0 C0.66 0 1.32 0 2 0 C1.26951699 4.68803656 -0.36636885 8.90885555 -2.0625 13.3125 C-2.34416016 14.05306641 -2.62582031 14.79363281 -2.91601562 15.55664062 C-3.60718575 17.37242655 -4.30311689 19.18639899 -5 21 C-5.66 20.67 -6.32 20.34 -7 20 C-3.88 3.88 -3.88 3.88 0 0 Z " fill="#1F1F0F" transform="translate(141,88)"/>
<path d="M0 0 C0.99 0 1.98 0 3 0 C4.69626379 2.39262471 6.17282021 4.71571204 7.625 7.25 C8.03234375 7.93191406 8.4396875 8.61382812 8.859375 9.31640625 C10.75155579 12.54313839 12.21441477 15.31496504 13 19 C12.01 19 11.02 19 10 19 C9.32845067 17.71086513 8.66291141 16.41859796 8 15.125 C7.62875 14.40570313 7.2575 13.68640625 6.875 12.9453125 C6 11 6 11 6 9 C5.34 9 4.68 9 4 9 C2.68 6.03 1.36 3.06 0 0 Z " fill="#18180C" transform="translate(428,119)"/>
<path d="M0 0 C0.66 0.66 1.32 1.32 2 2 C1.55123384 3.64846769 1.09069512 5.29373455 0.625 6.9375 C0.36976562 7.85402344 0.11453125 8.77054688 -0.1484375 9.71484375 C-1 12 -1 12 -3 13 C-3.73075648 15.3140622 -4.40138258 17.64828869 -5 20 C-5.66 20 -6.32 20 -7 20 C-6.56999948 13.69332572 -4.57144825 4.57144825 0 0 Z " fill="#1C1C0C" transform="translate(115,160)"/>
<path d="M0 0 C0.66 0 1.32 0 2 0 C3.03205859 2.7671136 4.05090829 5.53791254 5.0625 8.3125 C5.50432617 9.49102539 5.50432617 9.49102539 5.95507812 10.69335938 C6.22900391 11.45068359 6.50292969 12.20800781 6.78515625 12.98828125 C7.04176025 13.68477783 7.29836426 14.38127441 7.56274414 15.09887695 C8 17 8 17 7 20 C3.78892853 18.39446427 3.54425839 15.54580435 2.375 12.25 C1.92898437 11.01765625 1.48296875 9.7853125 1.0234375 8.515625 C0.12299371 5.42249748 -0.23061312 3.18003348 0 0 Z " fill="#221F0F" transform="translate(251,124)"/>
<path d="M0 0 C3.07114178 2.54315179 3.97855667 5.19023889 5.1875 8.9375 C5.53167969 9.97777344 5.87585938 11.01804687 6.23046875 12.08984375 C7 15 7 15 7 19 C6.34 19 5.68 19 5 19 C3.96772138 16.39985473 2.94894848 13.79573631 1.9375 11.1875 C1.64294922 10.44951172 1.34839844 9.71152344 1.04492188 8.95117188 C-1.11328125 3.33984375 -1.11328125 3.33984375 0 0 Z " fill="#282816" transform="translate(311,364)"/>
<path d="M0 0 C5.10663665 5.10663665 6.4844166 13.03962408 7 20 C6.01 19.67 5.02 19.34 4 19 C2.92227415 16.54550897 2.05376432 14.22958302 1.25 11.6875 C1.01667969 11.01009766 0.78335938 10.33269531 0.54296875 9.63476562 C-1.46678503 3.47914253 -1.46678503 3.47914253 0 0 Z " fill="#252516" transform="translate(244,246)"/>
<path d="M0 0 C0.66 0 1.32 0 2 0 C2 6.6 2 13.2 2 20 C1.01 20.33 0.02 20.66 -1 21 C-1 16.71 -1 12.42 -1 8 C-0.34 8 0.32 8 1 8 C0.67 7.34 0.34 6.68 0 6 C-0.039992 4.00039988 -0.04346799 1.99952758 0 0 Z " fill="#242415" transform="translate(185,216)"/>
<path d="M0 0 C6.625 -0.125 6.625 -0.125 10 1 C11.47965926 1.14573058 12.96403843 1.24663268 14.44921875 1.31640625 C15.29677734 1.35830078 16.14433594 1.40019531 17.01757812 1.44335938 C17.89865234 1.48267578 18.77972656 1.52199219 19.6875 1.5625 C21.02651367 1.62727539 21.02651367 1.62727539 22.39257812 1.69335938 C24.59490108 1.79935353 26.79733473 1.90142051 29 2 C29 2.33 29 2.66 29 3 C19.26515211 4.39375575 9.75756546 3.6977357 0 3 C0 2.01 0 1.02 0 0 Z " fill="#4A4940" transform="translate(294,484)"/>
<path d="M0 0 C11.22 0.33 22.44 0.66 34 1 C34 1.33 34 1.66 34 2 C22.78 2.33 11.56 2.66 0 3 C0 2.01 0 1.02 0 0 Z " fill="#585749" transform="translate(0,479)"/>
<path d="M0 0 C0.33 0.99 0.66 1.98 1 3 C-3.5104083 2.49884352 -7.97246721 1.87841247 -12.4375 1.0625 C-13.28183594 0.90910156 -14.12617188 0.75570312 -14.99609375 0.59765625 C-15.65738281 0.40042969 -16.31867188 0.20320313 -17 0 C-17.33 -0.66 -17.66 -1.32 -18 -2 C-13.17357658 -4.41321171 -4.95867414 -1.5658971 0 0 Z " fill="#201D0E" transform="translate(352,91)"/>
<path d="M0 0 C4.5329996 1.23627262 6.81180339 2.6125411 10 6 C11.0725 6.680625 12.145 7.36125 13.25 8.0625 C14.1575 8.701875 15.065 9.34125 16 10 C16 10.99 16 11.98 16 13 C10.13683491 9.56704016 4.46519414 6.03949132 -1 2 C-0.67 1.34 -0.34 0.68 0 0 Z " fill="#18170C" transform="translate(403,59)"/>
<path d="M0 0 C1.32 0.33 2.64 0.66 4 1 C5.265625 3.546875 5.265625 3.546875 6.25 6.75 C6.58515625 7.79671875 6.9203125 8.8434375 7.265625 9.921875 C7.94261534 12.75947282 8.15031749 15.10101986 8 18 C7.34 18 6.68 18 6 18 C4.02 12.06 2.04 6.12 0 0 Z " fill="#1B1B0E" transform="translate(262,231)"/>
<path d="M0 0 C0.99 0 1.98 0 3 0 C3.86772029 2.07772471 4.71873619 4.16243177 5.5625 6.25 C6.03816406 7.41015625 6.51382812 8.5703125 7.00390625 9.765625 C7.95770524 12.86266644 8.20983356 14.07321701 7 17 C2.62493262 12.62493262 0.62065213 6.05135823 0 0 Z " fill="#1E1D0D" transform="translate(325,259)"/>
<path d="M0 0 C1 2 1 2 -0.21484375 5.6953125 C-0.78133585 7.17485658 -1.35591889 8.65132181 -1.9375 10.125 C-2.22818359 10.87910156 -2.51886719 11.63320312 -2.81835938 12.41015625 C-3.53874998 14.27608602 -4.26850404 16.1383958 -5 18 C-5.66 18 -6.32 18 -7 18 C-6.4714941 11.92218211 -4.76879145 6.45399675 -2 1 C-1.34 0.67 -0.68 0.34 0 0 Z " fill="#1F1F0C" transform="translate(86,241)"/>
<path d="M0 0 C1.85546875 0.13671875 1.85546875 0.13671875 4 1 C5.30078125 3.58203125 5.30078125 3.58203125 6.3125 6.8125 C6.83263672 8.39998047 6.83263672 8.39998047 7.36328125 10.01953125 C7.97677451 12.89128192 8.01438677 14.2971501 7 17 C4.24638858 14.24638858 3.52585973 11.00154636 2.375 7.375 C2.14554687 6.66859375 1.91609375 5.9621875 1.6796875 5.234375 C1.11437579 3.49133055 0.55647456 1.74588584 0 0 Z " fill="#1A1A0C" transform="translate(275,123)"/>
<path d="M0 0 C1.23556641 0.01740234 1.23556641 0.01740234 2.49609375 0.03515625 C3.32238281 0.04417969 4.14867187 0.05320313 5 0.0625 C5.63808594 0.07410156 6.27617187 0.08570313 6.93359375 0.09765625 C6.93359375 0.75765625 6.93359375 1.41765625 6.93359375 2.09765625 C10.39859375 1.60265625 10.39859375 1.60265625 13.93359375 1.09765625 C14.26359375 2.08765625 14.59359375 3.07765625 14.93359375 4.09765625 C12.30764591 3.98400475 9.68347828 3.85726571 7.05859375 3.72265625 C6.31222656 3.69171875 5.56585938 3.66078125 4.796875 3.62890625 C-0.83984375 3.32421875 -0.83984375 3.32421875 -3.06640625 1.09765625 C-2.06640625 0.09765625 -2.06640625 0.09765625 0 0 Z " fill="#1B1B0A" transform="translate(329.06640625,36.90234375)"/>
<path d="M0 0 C2 1 2 1 2.8515625 3.50390625 C3.10679687 4.51324219 3.36203125 5.52257812 3.625 6.5625 C3.88539063 7.57441406 4.14578125 8.58632812 4.4140625 9.62890625 C4.60742188 10.41136719 4.80078125 11.19382813 5 12 C4.01 12 3.02 12 2 12 C1.67 10.02 1.34 8.04 1 6 C0.34 6 -0.32 6 -1 6 C-1.33 6.99 -1.66 7.98 -2 9 C-2.66 8.34 -3.32 7.68 -4 7 C-2.68 4.69 -1.36 2.38 0 0 Z " fill="#262818" transform="translate(208,146)"/>
<path d="M0 0 C3.96 0 7.92 0 12 0 C12 0.66 12 1.32 12 2 C12.99 2.33 13.98 2.66 15 3 C8.73 3 2.46 3 -4 3 C-2.68 2.67 -1.36 2.34 0 2 C0 1.34 0 0.68 0 0 Z " fill="#23230B" transform="translate(310,36)"/>
<path d="M0 0 C1.35158203 0.15275391 1.35158203 0.15275391 2.73046875 0.30859375 C3.41753906 0.39238281 4.10460937 0.47617188 4.8125 0.5625 C1.36616118 2.86005922 0.10181609 2.79893976 -3.94921875 2.7578125 C-5.06748047 2.75136719 -6.18574219 2.74492187 -7.33789062 2.73828125 C-9.08875977 2.71314453 -9.08875977 2.71314453 -10.875 2.6875 C-12.05384766 2.67847656 -13.23269531 2.66945313 -14.44726562 2.66015625 C-17.36088026 2.63656423 -20.27408892 2.6036454 -23.1875 2.5625 C-23.1875 2.2325 -23.1875 1.9025 -23.1875 1.5625 C-22.13949219 1.50191406 -21.09148437 1.44132813 -20.01171875 1.37890625 C-18.63279952 1.29448262 -17.25389395 1.20983553 -15.875 1.125 C-15.18470703 1.08568359 -14.49441406 1.04636719 -13.78320312 1.00585938 C-8.92089179 0.70049683 -4.85877744 -0.56790905 0 0 Z " fill="#212013" transform="translate(337.1875,13.4375)"/>
<path d="M0 0 C0.33 0 0.66 0 1 0 C0.39891424 5.65020618 -1.07528683 10.66164461 -3 16 C-3.99 16 -4.98 16 -6 16 C-3.03788505 4.00448483 -3.03788505 4.00448483 0 0 Z " fill="#212014" transform="translate(44,423)"/>
<path d="M0 0 C0.66 0.33 1.32 0.66 2 1 C0.9318153 6.11365014 -0.23107476 11.07227969 -2 16 C-2.99 16 -3.98 16 -5 16 C-4.54548816 14.26982492 -4.08621143 12.54090123 -3.625 10.8125 C-3.36976562 9.84957031 -3.11453125 8.88664062 -2.8515625 7.89453125 C-2.05233704 5.17789793 -1.0968638 2.60862825 0 0 Z " fill="#242410" transform="translate(104,406)"/>
<path d="M0 0 C2.49936244 2.49936244 3.03723753 4.64808008 4.125 8 C4.47820312 9.0725 4.83140625 10.145 5.1953125 11.25 C6 14 6 14 6 16 C3 15 3 15 1.796875 12.63671875 C1.45140625 11.66347656 1.1059375 10.69023437 0.75 9.6875 C0.21632812 8.23923828 0.21632812 8.23923828 -0.328125 6.76171875 C-1.00546613 3.97753166 -0.98017307 2.64521065 0 0 Z " fill="#1A1A10" transform="translate(225,193)"/>
<path d="M0 0 C1.30324219 -0.02126953 1.30324219 -0.02126953 2.6328125 -0.04296875 C4.875 0.1875 4.875 0.1875 6.875 2.1875 C3.40787889 3.34320704 0.3335044 3.51585293 -3.3125 3.75 C-5.22095703 3.87568359 -5.22095703 3.87568359 -7.16796875 4.00390625 C-8.14378906 4.06449219 -9.11960937 4.12507813 -10.125 4.1875 C-9.795 3.1975 -9.465 2.2075 -9.125 1.1875 C-6.1508439 0.03384752 -3.16413847 0.02361297 0 0 Z " fill="#1D1D0E" transform="translate(297.125,36.8125)"/>
<path d="M0 0 C1.11328125 1.6796875 1.11328125 1.6796875 2 4 C1.35546875 6.5078125 1.35546875 6.5078125 0.1875 9.125 C-0.19019531 9.99382813 -0.56789062 10.86265625 -0.95703125 11.7578125 C-1.61898363 13.18088615 -2.29809978 14.59619957 -3 16 C-3.66 16 -4.32 16 -5 16 C-4.39363767 10.23955788 -2.24341721 5.27985631 0 0 Z " fill="#1D1E11" transform="translate(166,19)"/>
<path d="M0 0 C0.99 0 1.98 0 3 0 C3.67756882 1.55780332 4.34159457 3.12150096 5 4.6875 C5.37125 5.55761719 5.7425 6.42773438 6.125 7.32421875 C7.01870488 10.0572002 7.16449676 12.14700934 7 15 C6.34 15 5.68 15 5 15 C3.35 10.05 1.7 5.1 0 0 Z " fill="#202010" transform="translate(336,289)"/>
<path d="M0 0 C2.90025094 1.45012547 3.08706855 3.31312909 4.1875 6.3125 C4.55230469 7.27800781 4.91710937 8.24351562 5.29296875 9.23828125 C6.008904 12.0347797 5.99249531 13.33859538 5 16 C3 15 3 15 1.89453125 12.12890625 C1.53746094 10.95199219 1.18039062 9.77507812 0.8125 8.5625 C0.44769531 7.38816406 0.08289063 6.21382812 -0.29296875 5.00390625 C-1 2 -1 2 0 0 Z " fill="#262611" transform="translate(287,151)"/>
<path d="M0 0 C0.33 0 0.66 0 1 0 C1.56561146 5.65611463 -0.28608722 9.22642128 -3 14 C-3.99 14 -4.98 14 -6 14 C-5.57316761 12.41375765 -5.13303842 10.8310902 -4.6875 9.25 C-4.32205078 7.92742187 -4.32205078 7.92742187 -3.94921875 6.578125 C-2.97419285 3.9299065 -1.84762559 2.12006368 0 0 Z " fill="#2A2616" transform="translate(153,57)"/>
<path d="M0 0 C0.98613281 0.30164063 1.97226563 0.60328125 2.98828125 0.9140625 C3.98214844 1.21054687 4.97601563 1.50703125 6 1.8125 C7.13888672 2.17214844 7.13888672 2.17214844 8.30078125 2.5390625 C8.30078125 3.1990625 8.30078125 3.8590625 8.30078125 4.5390625 C9.29078125 4.8690625 10.28078125 5.1990625 11.30078125 5.5390625 C9.30078125 6.5390625 9.30078125 6.5390625 5.82421875 5.54296875 C4.43880189 5.07006203 3.05606578 4.58924606 1.67578125 4.1015625 C0.969375 3.85857422 0.26296875 3.61558594 -0.46484375 3.36523438 C-2.21195162 2.76319045 -3.95589661 2.15198233 -5.69921875 1.5390625 C-2.69921875 -0.4609375 -2.69921875 -0.4609375 0 0 Z " fill="#3B3A2E" transform="translate(249.69921875,474.4609375)"/>
<path d="M0 0 C0.66 0.66 1.32 1.32 2 2 C0.45730076 6.72065967 -1.07794619 11.41664092 -3 16 C-3.66 15.67 -4.32 15.34 -5 15 C-3.97137215 9.55432314 -2.75385216 4.88182883 0 0 Z " fill="#1B1A0D" transform="translate(33,382)"/>
<path d="M0 0 C2.90025094 1.45012547 3.08706855 3.31312909 4.1875 6.3125 C4.55230469 7.27800781 4.91710937 8.24351562 5.29296875 9.23828125 C6.008904 12.0347797 5.99249531 13.33859538 5 16 C2.50448842 13.50448842 1.92424008 11.33923374 0.8125 8 C0.44769531 6.9275 0.08289063 5.855 -0.29296875 4.75 C-1 2 -1 2 0 0 Z " fill="#272613" transform="translate(349,320)"/>
<path d="M0 0 C0.99 0 1.98 0 3 0 C3.72697561 1.74233825 4.43098244 3.49427345 5.125 5.25 C5.51945312 6.22453125 5.91390625 7.1990625 6.3203125 8.203125 C7 11 7 11 6.1171875 13.359375 C5.56417969 14.17148437 5.56417969 14.17148437 5 15 C4.16260219 12.8765984 3.33019717 10.7512272 2.5 8.625 C1.80390625 6.84996094 1.80390625 6.84996094 1.09375 5.0390625 C0 2 0 2 0 0 Z " fill="#19190F" transform="translate(343,307)"/>
<path d="M0 0 C0.66 0.33 1.32 0.66 2 1 C1.34 4.3 0.68 7.6 0 11 C-0.66 11 -1.32 11 -2 11 C-2 11.99 -2 12.98 -2 14 C-2.66 14 -3.32 14 -4 14 C-3.53328373 8.58609132 -2.75702189 4.79482068 0 0 Z " fill="#1B1A10" transform="translate(69,284)"/>
<path d="M0 0 C6.06892629 -0.25287193 11.16200408 0.30167391 17 2 C16.67 2.66 16.34 3.32 16 4 C10.72 3.34 5.44 2.68 0 2 C0 1.34 0 0.68 0 0 Z " fill="#27261B" transform="translate(343,15)"/>
<path d="M0 0 C0 0.99 0 1.98 0 3 C-1.58086048 3.36504603 -3.16483907 3.71660506 -4.75 4.0625 C-5.63171875 4.25972656 -6.5134375 4.45695312 -7.421875 4.66015625 C-9.98679028 4.99825872 -11.57091639 4.81158635 -14 4 C-13.67 3.34 -13.34 2.68 -13 2 C-11.07421875 1.3671875 -11.07421875 1.3671875 -8.6875 0.875 C-7.90761719 0.70742188 -7.12773437 0.53984375 -6.32421875 0.3671875 C-4 0 -4 0 0 0 Z " fill="#31301F" transform="translate(366,479)"/>
<path d="M0 0 C0.66 0.33 1.32 0.66 2 1 C0.35 5.29 -1.3 9.58 -3 14 C-3.66 14 -4.32 14 -5 14 C-4.49580302 8.95803017 -3.75495562 3.75495562 0 0 Z " fill="#252516" transform="translate(23,411)"/>
<path d="M0 0 C2.52475462 2.52475462 3.04307871 4.73497997 4.125 8.125 C4.47820312 9.22070312 4.83140625 10.31640625 5.1953125 11.4453125 C5.46085937 12.28835938 5.72640625 13.13140625 6 14 C4.11328125 13.76953125 4.11328125 13.76953125 2 13 C0.91796875 11.07421875 0.91796875 11.07421875 0.1875 8.6875 C-0.06644531 7.90761719 -0.32039063 7.12773437 -0.58203125 6.32421875 C-1.02792519 3.84471509 -0.79557487 2.36507631 0 0 Z " fill="#2A2A13" transform="translate(333,345)"/>
<path d="M0 0 C2.31 0 4.62 0 7 0 C7.33 1.65 7.66 3.3 8 5 C7.01 5 6.02 5 5 5 C5 4.34 5 3.68 5 3 C4.01 3 3.02 3 2 3 C1.67 3.99 1.34 4.98 1 6 C0.34 6 -0.32 6 -1 6 C-0.67 4.02 -0.34 2.04 0 0 Z " fill="#2D2B1B" transform="translate(122,355)"/>
<path d="M0 0 C0.99 0 1.98 0 3 0 C3.70133599 1.57725347 4.385583 3.16211333 5.0625 4.75 C5.44535156 5.63171875 5.82820313 6.5134375 6.22265625 7.421875 C7.04600008 10.15256309 6.9773992 11.36901347 6 14 C3.52813545 11.03653214 2.33751639 8.45958311 1.3125 4.75 C1.06113281 3.85796875 0.80976563 2.9659375 0.55078125 2.046875 C0.36902344 1.37140625 0.18726563 0.6959375 0 0 Z " fill="#2C2B17" transform="translate(273,262)"/>
<path d="M0 0 C2.03529587 2.03529587 2.6384272 3.23417382 3.625 5.875 C3.88539063 6.55304688 4.14578125 7.23109375 4.4140625 7.9296875 C5 10 5 10 5 14 C2 13 2 13 1.015625 11.328125 C-0.50764155 7.19354438 -1.49659646 4.35373516 0 0 Z " fill="#201F18" transform="translate(271,176)"/>
<path d="M0 0 C0.66 0.33 1.32 0.66 2 1 C1.57835981 2.98260599 1.13721222 4.96107245 0.6875 6.9375 C0.44386719 8.03964844 0.20023437 9.14179688 -0.05078125 10.27734375 C-0.36402344 11.17582031 -0.67726563 12.07429687 -1 13 C-1.99 13.33 -2.98 13.66 -4 14 C-3.53328373 8.58609132 -2.75702189 4.79482068 0 0 Z " fill="#1A180E" transform="translate(120,145)"/>
<path d="M0 0 C0.66 0 1.32 0 2 0 C1.40895235 4.84659077 0.02055843 8.60748167 -2 13 C-2.99 12.67 -3.98 12.34 -5 12 C-3.35 8.04 -1.7 4.08 0 0 Z " fill="#272615" transform="translate(57,386)"/>
<path d="M0 0 C2.5499869 1.27499345 2.65976415 2.18491352 3.625 4.8125 C3.88539063 5.49957031 4.14578125 6.18664062 4.4140625 6.89453125 C5 9 5 9 5 13 C2 12 2 12 1.015625 10.0390625 C0.76296875 9.24242187 0.5103125 8.44578125 0.25 7.625 C-0.01296875 6.83351563 -0.2759375 6.04203125 -0.546875 5.2265625 C-1 3 -1 3 0 0 Z " fill="#17170D" transform="translate(280,277)"/>
<path d="M0 0 C3.65866294 4.32387438 5 8.34923902 5 14 C2 13 2 13 1.015625 11.07421875 C0.76296875 10.28660156 0.5103125 9.49898437 0.25 8.6875 C-0.14445312 7.51767578 -0.14445312 7.51767578 -0.546875 6.32421875 C-1.03298902 3.83078909 -0.80665429 2.3818103 0 0 Z " fill="#2C2B10" transform="translate(419,150)"/>
<path d="M0 0 C5.27315333 0.4452885 10.01770224 1.08373163 15 3 C14.67 3.66 14.34 4.32 14 5 C4 4 4 4 0 0 Z " fill="#2A281B" transform="translate(258,478)"/>
<path d="M0 0 C3.05906926 2.51066469 3.75191278 4.90059933 4.6875 8.6875 C5.06455078 10.17830078 5.06455078 10.17830078 5.44921875 11.69921875 C5.63097656 12.45847656 5.81273437 13.21773438 6 14 C5.01 13.67 4.02 13.34 3 13 C1.796875 10.56640625 1.796875 10.56640625 0.75 7.5625 C0.39421875 6.57378906 0.0384375 5.58507812 -0.328125 4.56640625 C-1 2 -1 2 0 0 Z " fill="#262510" transform="translate(360,350)"/>
<path d="M0 0 C0.33 0 0.66 0 1 0 C0.52060632 4.71403788 0.03165952 8.66579301 -2 13 C-2.99 13 -3.98 13 -5 13 C-4.55005243 11.20620902 -4.08975857 9.41501072 -3.625 7.625 C-3.36976562 6.62726563 -3.11453125 5.62953125 -2.8515625 4.6015625 C-2 2 -2 2 0 0 Z " fill="#24241B" transform="translate(73,344)"/>
<path d="M0 0 C2.17186421 2.17186421 2.6793248 3.49976531 3.625 6.375 C3.88539063 7.14585937 4.14578125 7.91671875 4.4140625 8.7109375 C5 11 5 11 5 15 C4.01 14.67 3.02 14.34 2 14 C0.19113429 9.23982707 -0.20666253 5.06323209 0 0 Z " fill="#232213" transform="translate(470,139)"/>
<path d="M0 0 C0.66 0 1.32 0 2 0 C1.45144652 4.571279 0.58255197 8.67435795 -1 13 C-1.99 13 -2.98 13 -4 13 C-3.52343588 11.20763933 -3.04366502 9.41613103 -2.5625 7.625 C-2.29566406 6.62726563 -2.02882813 5.62953125 -1.75390625 4.6015625 C-1 2 -1 2 0 0 Z " fill="#1A1A0D" transform="translate(109,392)"/>
<path d="M0 0 C0.66 0 1.32 0 2 0 C2.6987693 1.76641683 3.38366583 3.53832664 4.0625 5.3125 C4.44535156 6.29863281 4.82820313 7.28476562 5.22265625 8.30078125 C6 11 6 11 5 14 C1.99174436 12.49587218 1.69337029 10.13951699 0.59765625 7.078125 C-0.10104707 4.64864679 -0.23571669 2.51431136 0 0 Z " fill="#1C1C10" transform="translate(327,331)"/>
<path d="M0 0 C1.59373901 2.39060851 2.65297076 4.30828179 3.6875 6.9375 C3.95949219 7.60652344 4.23148438 8.27554688 4.51171875 8.96484375 C5.0787676 11.32830338 4.76024003 12.7192799 4 15 C4 14.34 4 13.68 4 13 C3.34 13 2.68 13 2 13 C-0.44038726 8.11922548 -1.46845421 5.47332932 0 0 Z " fill="#272518" transform="translate(234,145)"/>
<path d="M0 0 C3.10468986 2.54020079 3.98485936 5.17370067 5 9 C5 10.32 5 11.64 5 13 C4.34 13 3.68 13 3 13 C2.30329584 11.21189234 1.61788811 9.41937948 0.9375 7.625 C0.55464844 6.62726562 0.17179688 5.62953125 -0.22265625 4.6015625 C-1 2 -1 2 0 0 Z " fill="#242414" transform="translate(251,53)"/>
<path d="M0 0 C2.7710688 2.34591852 3.52059284 4.14776201 4.1875 7.6875 C4.34605469 8.49574219 4.50460937 9.30398438 4.66796875 10.13671875 C4.77753906 10.75160156 4.88710938 11.36648438 5 12 C4.01 12 3.02 12 2 12 C1.4654744 10.75579353 0.94791389 9.50429064 0.4375 8.25 C0.14746094 7.55390625 -0.14257812 6.8578125 -0.44140625 6.140625 C-1.07831803 3.69987216 -0.80248831 2.3596345 0 0 Z " fill="#1C1B12" transform="translate(313,291)"/>
<path d="M0 0 C0.66 0.66 1.32 1.32 2 2 C0.69791667 3.43229167 -0.60416667 4.86458333 -1.90625 6.296875 C-3.36024492 8.22360515 -3.36024492 8.22360515 -3 12 C-3.99 11.67 -4.98 11.34 -6 11 C-6.375 8.875 -6.375 8.875 -6 6 C-4.20659643 3.76086748 -2.16547337 1.87545461 0 0 Z " fill="#1F1F0E" transform="translate(231,117)"/>
<path d="M0 0 C0.99 0 1.98 0 3 0 C2.52309796 1.62566606 2.04340334 3.25051311 1.5625 4.875 C1.29566406 5.77992188 1.02882813 6.68484375 0.75390625 7.6171875 C0 10 0 10 -1 12 C-1.66 12 -2.32 12 -3 12 C-2.40075776 7.80530429 -1.42500059 3.99000166 0 0 Z " fill="#1A1A0C" transform="translate(41,358)"/>
<path d="M0 0 C1.921875 0.6796875 1.921875 0.6796875 4 2 C4.828125 4.3828125 4.828125 4.3828125 5.25 7.125 C5.39953125 8.03507812 5.5490625 8.94515625 5.703125 9.8828125 C5.80109375 10.58148438 5.8990625 11.28015625 6 12 C3 11 3 11 2.05078125 9.2578125 C1.80714844 8.55398438 1.56351562 7.85015625 1.3125 7.125 C1.06113281 6.42632812 0.80976563 5.72765625 0.55078125 5.0078125 C0 3 0 3 0 0 Z " fill="#1C1C12" transform="translate(300,259)"/>
<path d="M0 0 C2.54384726 1.27192363 2.69368156 2.19948469 3.6875 4.8125 C3.95949219 5.49957031 4.23148437 6.18664062 4.51171875 6.89453125 C5.06812731 9.29376496 4.77364938 10.6894364 4 13 C4 12.34 4 11.68 4 11 C3.34 11 2.68 11 2 11 C-1.07692308 4.6 -1.07692308 4.6 -0.6875 1.5625 C-0.460625 1.046875 -0.23375 0.53125 0 0 Z " fill="#292916" transform="translate(321,243)"/>
<path d="M0 0 C2 1 2 1 2.8515625 3.28515625 C3.10679687 4.20167969 3.36203125 5.11820313 3.625 6.0625 C3.88539063 6.98160156 4.14578125 7.90070313 4.4140625 8.84765625 C4.60742188 9.55792969 4.80078125 10.26820313 5 11 C4.34 11.66 3.68 12.32 3 13 C2.30093058 11.40084119 1.61610532 9.79544955 0.9375 8.1875 C0.55464844 7.29417969 0.17179687 6.40085938 -0.22265625 5.48046875 C-1 3 -1 3 0 0 Z " fill="#17180D" transform="translate(283,140)"/>
<path d="M0 0 C0.99 0.33 1.98 0.66 3 1 C2.60446947 2.6510403 2.18286103 4.2958515 1.75 5.9375 C1.40195313 7.31228516 1.40195313 7.31228516 1.046875 8.71484375 C0 11 0 11 -2.109375 11.81640625 C-2.73328125 11.87699219 -3.3571875 11.93757813 -4 12 C-4 11.01 -4 10.02 -4 9 C-3.34 9 -2.68 9 -2 9 C-1.34 6.03 -0.68 3.06 0 0 Z " fill="#1F1E0F" transform="translate(92,439)"/>
<path d="M0 0 C0.66 0.66 1.32 1.32 2 2 C0.02 5.63 -1.96 9.26 -4 13 C-4.66 12.67 -5.32 12.34 -6 12 C-4.43358249 7.69235185 -2.31663844 3.93828536 0 0 Z " fill="#32321D" transform="translate(485,383)"/>
<path d="M0 0 C1.15957207 3.47871621 0.77456651 4.34219645 -0.4375 7.6875 C-0.72496094 8.49574219 -1.01242188 9.30398438 -1.30859375 10.13671875 C-1.53675781 10.75160156 -1.76492187 11.36648438 -2 12 C-2.99 12 -3.98 12 -5 12 C-4.55149342 10.18504338 -4.09090429 8.37306866 -3.625 6.5625 C-3.36976562 5.55316406 -3.11453125 4.54382813 -2.8515625 3.50390625 C-2 1 -2 1 0 0 Z " fill="#1F1E10" transform="translate(115,379)"/>
<path d="M0 0 C0.99 0.33 1.98 0.66 3 1 C3.94921875 3.50390625 3.94921875 3.50390625 4.6875 6.5625 C4.93886719 7.57441406 5.19023437 8.58632813 5.44921875 9.62890625 C5.63097656 10.41136719 5.81273437 11.19382812 6 12 C5.01 12 4.02 12 3 12 C2.49440092 10.56445975 1.9957251 9.1264798 1.5 7.6875 C1.2215625 6.88699219 0.943125 6.08648437 0.65625 5.26171875 C0 3 0 3 0 0 Z " fill="#18180E" transform="translate(250,267)"/>
<path d="M0 0 C2.7710688 2.34591852 3.52059284 4.14776201 4.1875 7.6875 C4.34605469 8.49574219 4.50460937 9.30398437 4.66796875 10.13671875 C4.77753906 10.75160156 4.88710938 11.36648437 5 12 C4.01 11.67 3.02 11.34 2 11 C1.05078125 8.71484375 1.05078125 8.71484375 0.3125 5.9375 C0.06113281 5.01839844 -0.19023437 4.09929687 -0.44921875 3.15234375 C-0.63097656 2.44207031 -0.81273437 1.73179687 -1 1 C-0.67 0.67 -0.34 0.34 0 0 Z " fill="#1D1D10" transform="translate(299,184)"/>
<path d="M0 0 C2.2477975 2.05233685 3.0022242 3.00667261 4 6 C4.03954234 8.33299825 4.04401732 10.66708189 4 13 C1.51783668 10.51783668 0.33576686 8.24400524 -1 5 C-0.6875 2.125 -0.6875 2.125 0 0 Z " fill="#1E1E0E" transform="translate(247,184)"/>
<path d="M0 0 C1.13643966 3.40931897 0.86747764 4.00335456 -0.4375 7.1875 C-0.72496094 7.90292969 -1.01242188 8.61835938 -1.30859375 9.35546875 C-1.53675781 9.89816406 -1.76492187 10.44085938 -2 11 C-2.66 10.67 -3.32 10.34 -4 10 C-4 8.02 -4 6.04 -4 4 C-3.34 4 -2.68 4 -2 4 C-2 3.01 -2 2.02 -2 1 C-1.34 0.67 -0.68 0.34 0 0 Z " fill="#1D1D13" transform="translate(196,174)"/>
<path d="M0 0 C2.34914492 2.34914492 2.73140357 3.95679446 3.625 7.125 C3.88539063 8.03507812 4.14578125 8.94515625 4.4140625 9.8828125 C4.70410156 10.93082031 4.70410156 10.93082031 5 12 C1.1640625 10.2890625 1.1640625 10.2890625 -0.3125 7.6875 C-1.07479299 4.7076274 -0.83686751 2.9290363 0 0 Z " fill="#1F1E16" transform="translate(293,384)"/>
<path d="M0 0 C0.66 0.33 1.32 0.66 2 1 C1.25 7.625 1.25 7.625 -1 11 C-1.66 11 -2.32 11 -3 11 C-2.53199289 6.94393835 -2.12046792 3.53411321 0 0 Z " fill="#23230E" transform="translate(87,383)"/>
<path d="M0 0 C0.66 0 1.32 0 2 0 C1.37240135 2.92879371 0.41377341 5.36095629 -1 8 C-1.66 8 -2.32 8 -3 8 C-3.33 8.99 -3.66 9.98 -4 11 C-5 8 -5 8 -4.07421875 5.95703125 C-3.61660156 5.24933594 -3.15898437 4.54164063 -2.6875 3.8125 C-2.23761719 3.09707031 -1.78773438 2.38164062 -1.32421875 1.64453125 C-0.88722656 1.10183594 -0.45023437 0.55914062 0 0 Z " fill="#1E1D0E" transform="translate(414,357)"/>
<path d="M0 0 C0.99 0.33 1.98 0.66 3 1 C4.52160014 4.6037898 5 7.05220686 5 11 C4.34 11 3.68 11 3 11 C0.84694043 7.14243493 -0.39253254 4.44870215 0 0 Z " fill="#1C1B0E" transform="translate(332,276)"/>
<path d="M0 0 C0.66 0 1.32 0 2 0 C2.69685498 1.6210103 3.38222861 3.24696066 4.0625 4.875 C4.63677734 6.23238281 4.63677734 6.23238281 5.22265625 7.6171875 C6 10 6 10 5 12 C2.26629955 9.63907689 1.08902355 7.43461272 0 4 C0 2.68 0 1.36 0 0 Z " fill="#21200E" transform="translate(280,204)"/>
<path d="M0 0 C0.66 0 1.32 0 2 0 C1.67 3.96 1.34 7.92 1 12 C0.01 12 -0.98 12 -2 12 C-2 11.01 -2 10.02 -2 9 C-1.34 9 -0.68 9 0 9 C-0.185625 7.700625 -0.37125 6.40125 -0.5625 5.0625 C-0.87890625 2.84765625 -0.87890625 2.84765625 -1 1 C-0.67 0.67 -0.34 0.34 0 0 Z " fill="#2C2C12" transform="translate(188,201)"/>
<path d="M0 0 C0.33 0.99 0.66 1.98 1 3 C-0.1196986 4.00593243 -1.2459412 5.0045849 -2.375 6 C-3.00148437 6.556875 -3.62796875 7.11375 -4.2734375 7.6875 C-6 9 -6 9 -8 9 C-7.61479436 6.46089803 -7.29902057 5.27248877 -5.37109375 3.515625 C-4.73300781 3.09796875 -4.09492188 2.6803125 -3.4375 2.25 C-2.79683594 1.82203125 -2.15617188 1.3940625 -1.49609375 0.953125 C-1.00238281 0.63859375 -0.50867188 0.3240625 0 0 Z " fill="#1D1D11" transform="translate(242,108)"/>
<path d="M0 0 C1.32 0 2.64 0 4 0 C4 0.99 4 1.98 4 3 C4.99 3.33 5.98 3.66 7 4 C7 4.66 7 5.32 7 6 C8.32 6 9.64 6 11 6 C11 6.66 11 7.32 11 8 C6.4926374 7.46972205 3.5460927 5.80388725 0 3 C0 2.01 0 1.02 0 0 Z " fill="#252314" transform="translate(375,101)"/>
<path d="M0 0 C1 2 1 2 0.22265625 4.3828125 C-0.16019531 5.28773437 -0.54304687 6.19265625 -0.9375 7.125 C-1.31777344 8.03507812 -1.69804687 8.94515625 -2.08984375 9.8828125 C-2.39019531 10.58148438 -2.69054687 11.28015625 -3 12 C-3.66 12 -4.32 12 -5 12 C-4.58525633 6.71201818 -3.64775386 3.88309282 0 0 Z " fill="#1E190F" transform="translate(147,75)"/>
<path d="M0 0 C0.99 0.33 1.98 0.66 3 1 C4.52160014 4.6037898 5 7.05220686 5 11 C4.01 10.67 3.02 10.34 2 10 C0.47839986 6.3962102 0 3.94779314 0 0 Z " fill="#1A190C" transform="translate(194,321)"/>
<path d="M0 0 C3 1 3 1 4.1875 3.25 C4.99938294 5.99791147 5.16260121 8.15447889 5 11 C4.34 11 3.68 11 3 11 C2.49384702 9.73160474 1.99530901 8.46016898 1.5 7.1875 C1.2215625 6.47980469 0.943125 5.77210938 0.65625 5.04296875 C0 3 0 3 0 0 Z " fill="#1F1F10" transform="translate(257,215)"/>
<path d="M0 0 C0.66 0 1.32 0 2 0 C1.88601335 1.62580966 1.75844341 3.25067157 1.625 4.875 C1.52058594 6.23238281 1.52058594 6.23238281 1.4140625 7.6171875 C1 10 1 10 -1 12 C-2.36884358 7.48281619 -1.47075246 4.41225737 0 0 Z " fill="#232312" transform="translate(191,186)"/>
<path d="M0 0 C0.99 0 1.98 0 3 0 C2.39147692 3.54971796 1.61653196 6.76693609 0 10 C-0.99 10.33 -1.98 10.66 -3 11 C-2.01 7.37 -1.02 3.74 0 0 Z " fill="#1D1D0B" transform="translate(125,129)"/>
<path d="M0 0 C3.21524305 1.40844718 5.32183868 3.10344786 7.75 5.625 C8.67039062 6.57246094 8.67039062 6.57246094 9.609375 7.5390625 C10.29773438 8.26222656 10.29773438 8.26222656 11 9 C10.67 9.66 10.34 10.32 10 11 C8.32742645 9.5484451 6.66208242 8.08855591 5 6.625 C3.6078125 5.40683594 3.6078125 5.40683594 2.1875 4.1640625 C1.465625 3.44992188 0.74375 2.73578125 0 2 C0 1.34 0 0.68 0 0 Z " fill="#1F1F0B" transform="translate(429,79)"/>
<path d="M0 0 C0.99 0.33 1.98 0.66 3 1 C3.73046875 3.06640625 3.73046875 3.06640625 4.1875 5.5625 C4.34605469 6.38878906 4.50460937 7.21507812 4.66796875 8.06640625 C4.77753906 8.70449219 4.88710938 9.34257812 5 10 C4.01 10 3.02 10 2 10 C0.68373308 6.38026598 0 3.90432869 0 0 Z " fill="#231F12" transform="translate(343,375)"/>
<path d="M0 0 C0.66 0 1.32 0 2 0 C3.19287411 3.87684087 4 6.91621923 4 11 C3.01 10.67 2.02 10.34 1 10 C0.67 6.7 0.34 3.4 0 0 Z " fill="#1A1A0F" transform="translate(116,319)"/>
<path d="M0 0 C0.66 0 1.32 0 2 0 C1.71758359 1.46015291 1.42373386 2.91809793 1.125 4.375 C0.96257812 5.18710937 0.80015625 5.99921875 0.6328125 6.8359375 C0 9 0 9 -2 11 C-2.66 10.34 -3.32 9.68 -4 9 C-2.68 6.03 -1.36 3.06 0 0 Z " fill="#212111" transform="translate(103,261)"/>
<path d="M0 0 C0.33 0 0.66 0 1 0 C1 4.62 1 9.24 1 14 C0.34 13.67 -0.32 13.34 -1 13 C-1.484375 10.56640625 -1.484375 10.56640625 -1.75 7.5625 C-1.84796875 6.57378906 -1.9459375 5.58507812 -2.046875 4.56640625 C-2 2 -2 2 0 0 Z " fill="#2A2A1D" transform="translate(110,249)"/>
<path d="M0 0 C1.4835001 0.42257276 2.96176424 0.86356322 4.4375 1.3125 C5.67306641 1.67794922 5.67306641 1.67794922 6.93359375 2.05078125 C7.61550781 2.36402344 8.29742187 2.67726562 9 3 C9.33 3.99 9.66 4.98 10 6 C6.28111761 5.49287967 3.26545761 4.88391785 0 3 C0 2.01 0 1.02 0 0 Z " fill="#1C190C" transform="translate(382,49)"/>
<path d="M0 0 C0.66 0 1.32 0 2 0 C2.99 3.3 3.98 6.6 5 10 C4.01 10 3.02 10 2 10 C0.68373308 6.38026598 0 3.90432869 0 0 Z " fill="#201F13" transform="translate(347,386)"/>
<path d="M0 0 C0.66 0.66 1.32 1.32 2 2 C1.01 4.97 0.02 7.94 -1 11 C-1.66 10.67 -2.32 10.34 -3 10 C-2.25 3.375 -2.25 3.375 0 0 Z " fill="#272718" transform="translate(48,341)"/>
<path d="M0 0 C0.66 0 1.32 0 2 0 C3.75747614 4.50353262 4.19294408 8.17639811 4 13 C3.01 12.67 2.02 12.34 1 12 C0.67 8.04 0.34 4.08 0 0 Z " fill="#414123" transform="translate(108,268)"/>
<path d="M0 0 C3 1 3 1 4.25 3.25 C5.07700926 6.28236729 4.85394079 8.01120724 4 11 C1.55160412 7.32740617 0 4.45351799 0 0 Z " fill="#1B1B0D" transform="translate(441,143)"/>
<path d="M0 0 C3.57983659 3.34118082 5.89716734 5.73768141 6.125 10.75 C6.08375 11.4925 6.0425 12.235 6 13 C2.84297684 9.09130466 0 5.1385061 0 0 Z " fill="#302F1E" transform="translate(478,101)"/>
<path d="M0 0 C0.66 0 1.32 0 2 0 C1.53199289 4.05606165 1.12046792 7.46588679 -1 11 C-1.66 10.01 -2.32 9.02 -3 8 C-2.5390625 5.95703125 -2.5390625 5.95703125 -1.625 3.8125 C-1.32851562 3.09707031 -1.03203125 2.38164062 -0.7265625 1.64453125 C-0.36691406 0.83048828 -0.36691406 0.83048828 0 0 Z " fill="#1E1D13" transform="translate(83,465)"/>
<path d="M0 0 C2.95183101 2.95183101 3.08663988 5.95511947 4 10 C3.01 10 2.02 10 1 10 C0.63883954 8.5225254 0.28624952 7.04295325 -0.0625 5.5625 C-0.25972656 4.73878906 -0.45695312 3.91507813 -0.66015625 3.06640625 C-0.82837891 2.04353516 -0.82837891 2.04353516 -1 1 C-0.67 0.67 -0.34 0.34 0 0 Z " fill="#212113" transform="translate(293,236)"/>
<path d="M0 0 C2 1 2 1 3.125 3.8125 C4 7 4 7 4 11 C3.34 11 2.68 11 2 11 C1.47007308 9.54494642 0.9513211 8.08581873 0.4375 6.625 C0.14746094 5.81289062 -0.14257812 5.00078125 -0.44140625 4.1640625 C-1 2 -1 2 0 0 Z " fill="#1F1F12" transform="translate(228,130)"/>
<path d="M0 0 C-3.42346555 3.14958831 -6.44262737 3.56179109 -11 4 C-11 3.34 -11 2.68 -11 2 C-3.57142857 -1.57142857 -3.57142857 -1.57142857 0 0 Z " fill="#18180C" transform="translate(274,69)"/>
<path d="M0 0 C2.97 0.99 5.94 1.98 9 3 C9 3.66 9 4.32 9 5 C5.7 4.34 2.4 3.68 -1 3 C-0.67 2.01 -0.34 1.02 0 0 Z " fill="#2A2A19" transform="translate(368,44)"/>
<path d="M0 0 C2.3129482 2.3129482 2.49580975 3.47904875 3.125 6.625 C3.29257813 7.44226563 3.46015625 8.25953125 3.6328125 9.1015625 C3.81457031 10.04128906 3.81457031 10.04128906 4 11 C3.01 11.495 3.01 11.495 2 12 C1.47026689 10.37787941 0.95146893 8.75218416 0.4375 7.125 C0.14746094 6.22007812 -0.14257812 5.31515625 -0.44140625 4.3828125 C-1 2 -1 2 0 0 Z " fill="#232310" transform="translate(252,197)"/>
<path d="M0 0 C3.67230705 3.07999946 4.56802365 5.2482602 5 10 C2 9 2 9 0.8125 6.6875 C0 4 0 4 0 0 Z " fill="#221E0F" transform="translate(272,112)"/>
<path d="M0 0 C5.53846154 0.61538462 5.53846154 0.61538462 7.875 2.5625 C8.431875 3.2740625 8.431875 3.2740625 9 4 C8.67 4.66 8.34 5.32 8 6 C5.36 4.68 2.72 3.36 0 2 C0 1.34 0 0.68 0 0 Z " fill="#393822" transform="translate(360,95)"/>
<path d="M0 0 C3.00617269 3.00617269 2.59585316 5.82381598 3 10 C2.34 10 1.68 10 1 10 C0.01 7.03 -0.98 4.06 -2 1 C-1.34 0.67 -0.68 0.34 0 0 Z " fill="#18170D" transform="translate(256,65)"/>
<path d="M0 0 C2.31 0.66 4.62 1.32 7 2 C7 2.66 7 3.32 7 4 C7.66 4.33 8.32 4.66 9 5 C6 6 6 6 2.8125 4.5625 C1.884375 4.046875 0.95625 3.53125 0 3 C0 2.01 0 1.02 0 0 Z " fill="#181809" transform="translate(393,54)"/>
<path d="M0 0 C2.64 0.33 5.28 0.66 8 1 C8 1.99 8 2.98 8 4 C5.03 3.67 2.06 3.34 -1 3 C-0.67 2.01 -0.34 1.02 0 0 Z " fill="#2D2C1A" transform="translate(346,39)"/>
<path d="M0 0 C1.65 0.33 3.3 0.66 5 1 C4.67 1.66 4.34 2.32 4 3 C0.37 3 -3.26 3 -7 3 C-7 2.34 -7 1.68 -7 1 C-4.69 1.33 -2.38 1.66 0 2 C0 1.34 0 0.68 0 0 Z " fill="#3C3A29" transform="translate(347,482)"/>
<path d="M0 0 C-5.625 5 -5.625 5 -9 5 C-8.00233891 2.50584728 -7.31383315 1.21259665 -5.0625 -0.3125 C-3 -1 -3 -1 0 0 Z " fill="#242518" transform="translate(441,444)"/>
<path d="M0 0 C0.33 0 0.66 0 1 0 C0.609375 5.95703125 0.609375 5.95703125 0 8 C-2.046875 9.76171875 -2.046875 9.76171875 -4 11 C-3.5247412 9.35303396 -3.04468109 7.70745272 -2.5625 6.0625 C-2.29566406 5.14597656 -2.02882813 4.22945313 -1.75390625 3.28515625 C-1 1 -1 1 0 0 Z " fill="#1B1A0F" transform="translate(120,363)"/>
<path d="M0 0 C1 2 1 2 0.44140625 4.1640625 C0.15136719 4.97617188 -0.13867188 5.78828125 -0.4375 6.625 C-0.72496094 7.44226563 -1.01242188 8.25953125 -1.30859375 9.1015625 C-1.53675781 9.72804687 -1.76492187 10.35453125 -2 11 C-2.66 11 -3.32 11 -4 11 C-3.38461538 3.49230769 -3.38461538 3.49230769 -1.4375 1 C-0.963125 0.67 -0.48875 0.34 0 0 Z " fill="#1E1D0D" transform="translate(108,181)"/>
<path d="M0 0 C3.17538332 0.34021964 4.02276865 1.02466604 6.25 3.4375 C8 6 8 6 8 8 C3.79373966 6.49776416 2.26099979 3.71449966 0 0 Z " fill="#232318" transform="translate(401,124)"/>
<path d="M0 0 C2.97 0.33 5.94 0.66 9 1 C9.33 1.99 9.66 2.98 10 4 C6.7 3.34 3.4 2.68 0 2 C0 1.34 0 0.68 0 0 Z " fill="#25251B" transform="translate(361,18)"/>
<path d="M0 0 C3.88862987 1.26117725 5.89375599 2.45264167 8 6 C8 6.66 8 7.32 8 8 C4.22699642 6.9802693 3.19793856 6.34127338 1.1875 2.875 C0.795625 1.92625 0.40375 0.9775 0 0 Z " fill="#1D1C0C" transform="translate(173,428)"/>
<path d="M0 0 C0.66 0 1.32 0 2 0 C1.5020163 3.73487777 1.12508244 5.81237635 -1 9 C-1.66 8.34 -2.32 7.68 -3 7 C-2.01 4.69 -1.02 2.38 0 0 Z " fill="#2C2B0D" transform="translate(52,400)"/>
<path d="M0 0 C2.95183101 2.95183101 3.08663988 5.95511947 4 10 C3.34 10 2.68 10 2 10 C-1.07692308 4.58461538 -1.07692308 4.58461538 -0.6875 1.625 C-0.460625 1.08875 -0.23375 0.5525 0 0 Z " fill="#1D1A0C" transform="translate(352,397)"/>
<path d="M0 0 C5.875 4.625 5.875 4.625 7 8 C4.24542282 7.62005832 3.17979426 7.1926367 1.25 5.125 C0 3 0 3 0 0 Z " fill="#1A1A0F" transform="translate(219,367)"/>
<path d="M0 0 C2.15377564 2.62198774 3.40072174 4.64404172 4 8 C3.01 8.33 2.02 8.66 1 9 C-1.09230769 4.56923077 -1.09230769 4.56923077 -0.625 1.6875 C-0.41875 1.130625 -0.2125 0.57375 0 0 Z " fill="#343410" transform="translate(321,313)"/>
<path d="M0 0 C0.66 0.66 1.32 1.32 2 2 C1.01 4.64 0.02 7.28 -1 10 C-1.66 9.67 -2.32 9.34 -3 9 C-2.5020163 5.26512223 -2.12508244 3.18762365 0 0 Z " fill="#1F1F11" transform="translate(58,314)"/>
<path d="M0 0 C0.66 0 1.32 0 2 0 C2 1.32 2 2.64 2 4 C2.66 4 3.32 4 4 4 C4 5.98 4 7.96 4 10 C3.01 10.495 3.01 10.495 2 11 C1.66550467 9.35440244 1.33243501 7.70851502 1 6.0625 C0.814375 5.14597656 0.62875 4.22945313 0.4375 3.28515625 C0 1 0 1 0 0 Z " fill="#424215" transform="translate(110,291)"/>
<path d="M0 0 C1.98 0.66 3.96 1.32 6 2 C6.33 3.65 6.66 5.3 7 7 C4.36 5.35 1.72 3.7 -1 2 C-0.67 1.34 -0.34 0.68 0 0 Z " fill="#2F2D21" transform="translate(403,59)"/>
<path d="M0 0 C1.65 0 3.3 0 5 0 C5 0.66 5 1.32 5 2 C2.6875 3.6875 2.6875 3.6875 0 5 C-0.99 4.67 -1.98 4.34 -3 4 C-2.67 3.34 -2.34 2.68 -2 2 C-1.34 2 -0.68 2 0 2 C0 1.34 0 0.68 0 0 Z " fill="#2B2C22" transform="translate(412,459)"/>
<path d="M0 0 C0.66 0 1.32 0 2 0 C1.67 2.31 1.34 4.62 1 7 C0.01 7.33 -0.98 7.66 -2 8 C-2 6.02 -2 4.04 -2 2 C-1.34 2 -0.68 2 0 2 C0 1.34 0 0.68 0 0 Z " fill="#1B1B12" transform="translate(34,448)"/>
<path d="M0 0 C0.66 0.33 1.32 0.66 2 1 C1.75 3.375 1.75 3.375 1 6 C-1.0625 7.3125 -1.0625 7.3125 -3 8 C-1.125 1.125 -1.125 1.125 0 0 Z " fill="#1F1E10" transform="translate(418,348)"/>
<path d="M0 0 C0.33 0 0.66 0 1 0 C1 3.63 1 7.26 1 11 C0.01 11 -0.98 11 -2 11 C-1.34 7.37 -0.68 3.74 0 0 Z " fill="#474735" transform="translate(498,343)"/>
<path d="M0 0 C-3.26545761 1.88391785 -6.28111761 2.49287967 -10 3 C-10.33 2.34 -10.66 1.68 -11 1 C-6.92630576 -1.03684712 -4.41062136 -1.0257259 0 0 Z " fill="#212114" transform="translate(264,20)"/>
<path d="M0 0 C1.98 0 3.96 0 6 0 C6 0.66 6 1.32 6 2 C6.99 2.33 7.98 2.66 9 3 C6.03 3 3.06 3 0 3 C0 2.01 0 1.02 0 0 Z " fill="#343223" transform="translate(285,483)"/>
<path d="M0 0 C0.66 0.33 1.32 0.66 2 1 C2.73075648 3.3140622 3.40138258 5.64828869 4 8 C2.68 7.67 1.36 7.34 0 7 C-0.38133299 5.0085944 -0.71325582 3.00720923 -1 1 C-0.67 0.67 -0.34 0.34 0 0 Z " fill="#1C1C11" transform="translate(324,321)"/>
<path d="M0 0 C0.33 0 0.66 0 1 0 C1.9765625 6.0546875 1.9765625 6.0546875 2 8 C1.34 8.66 0.68 9.32 0 10 C-1 9 -1 9 -1.1328125 7.1875 C-1.13023438 6.465625 -1.12765625 5.74375 -1.125 5 C-1.12757812 4.278125 -1.13015625 3.55625 -1.1328125 2.8125 C-1 1 -1 1 0 0 Z " fill="#1F2012" transform="translate(115,308)"/>
<path d="M0 0 C1.31223496 3.93670488 0.24296256 6.12488144 -1 10 C-1.66 10 -2.32 10 -3 10 C-2.25 3.375 -2.25 3.375 0 0 Z " fill="#20200F" transform="translate(62,303)"/>
<path d="M0 0 C0.99 0 1.98 0 3 0 C2.47731534 2.76276177 1.89130413 5.3260876 1 8 C0.34 8 -0.32 8 -1 8 C-0.67 5.36 -0.34 2.72 0 0 Z " fill="#191910" transform="translate(92,219)"/>
<path d="M0 0 C3.0916909 2.52956528 3.90931332 5.22454612 5 9 C4.01 9 3.02 9 2 9 C0.50178941 5.62902617 0 3.79557881 0 0 Z " fill="#4B4B36" transform="translate(436,129)"/>
<path d="M0 0 C3.81684226 1.55500981 6.19195732 4.03595495 9 7 C8.01 7.495 8.01 7.495 7 8 C6.34 7.67 5.68 7.34 5 7 C5 6.34 5 5.68 5 5 C4.360625 4.731875 3.72125 4.46375 3.0625 4.1875 C1 3 1 3 0 0 Z " fill="#1B1B10" transform="translate(401,90)"/>
<path d="M0 0 C0 0.66 0 1.32 0 2 C-3.375 2.125 -3.375 2.125 -7 2 C-7.66 1.34 -8.32 0.68 -9 0 C-5.93109813 -1.53445094 -3.29905734 -0.54984289 0 0 Z " fill="#29291C" transform="translate(301,88)"/>
<path d="M0 0 C2.9719385 1.12451727 5.33440687 2.22293791 8 4 C7.67 4.99 7.34 5.98 7 7 C6.67 6.34 6.34 5.68 6 5 C4.02111039 4.27306096 2.02045442 3.60183749 0 3 C0 2.01 0 1.02 0 0 Z " fill="#1C1D10" transform="translate(390,83)"/>
<path d="M0 0 C1.32 0.33 2.64 0.66 4 1 C-1.14285714 5.42857143 -1.14285714 5.42857143 -5 6 C-3.35 4.02 -1.7 2.04 0 0 Z " fill="#1F1E0C" transform="translate(190,54)"/>
<path d="M0 0 C2.64 0 5.28 0 8 0 C8 0.66 8 1.32 8 2 C3.545 2.495 3.545 2.495 -1 3 C-0.67 2.01 -0.34 1.02 0 0 Z " fill="#2C291E" transform="translate(276,15)"/>
<path d="M0 0 C4.75 0.875 4.75 0.875 7 2 C7.625 4.0625 7.625 4.0625 8 6 C4.63408134 4.55746343 2.48952921 2.66735273 0 0 Z " fill="#29291E" transform="translate(188,443)"/>
<path d="M0 0 C0.66 0 1.32 0 2 0 C1.125 5.75 1.125 5.75 0 8 C-0.66 8 -1.32 8 -2 8 C-1.125 1.125 -1.125 1.125 0 0 Z " fill="#3E3B23" transform="translate(12,439)"/>
<path d="M0 0 C0.99 0.33 1.98 0.66 3 1 C1.515 4.465 1.515 4.465 0 8 C-0.66 7.67 -1.32 7.34 -2 7 C-1.125 2.25 -1.125 2.25 0 0 Z " fill="#302F26" transform="translate(95,432)"/>
<path d="M0 0 C-0.1875 1.8125 -0.1875 1.8125 -1 4 C-3.5625 5.75 -3.5625 5.75 -6 7 C-5.37162381 3.35541809 -4.14650034 0 0 0 Z " fill="#1C1C11" transform="translate(447,436)"/>
<path d="M0 0 C0.66 0 1.32 0 2 0 C1.125 5.75 1.125 5.75 0 8 C-0.66 8 -1.32 8 -2 8 C-1.125 1.125 -1.125 1.125 0 0 Z " fill="#1A1A09" transform="translate(73,422)"/>
<path d="M0 0 C0.66 0.66 1.32 1.32 2 2 C1.34 3.98 0.68 5.96 0 8 C-0.99 8 -1.98 8 -3 8 C-1.125 1.125 -1.125 1.125 0 0 Z " fill="#2F2E10" transform="translate(102,414)"/>
<path d="M0 0 C2.89932357 2.39509338 3.50168276 4.31245243 4 8 C3.01 8.495 3.01 8.495 2 9 C0.14223235 5.86501708 -0.20140476 3.62528568 0 0 Z " fill="#1F2010" transform="translate(131,364)"/>
<path d="M0 0 C0.66 0 1.32 0 2 0 C3.25664978 2.90600261 4 4.79604584 4 8 C3.01 7.67 2.02 7.34 1 7 C0.67 4.69 0.34 2.38 0 0 Z " fill="#201F12" transform="translate(339,364)"/>
<path d="M0 0 C3.16115776 1.36983503 3.9927092 1.9890638 6 5 C5.625 7.1875 5.625 7.1875 5 9 C1.9083091 6.47043472 1.09068668 3.77545388 0 0 Z " fill="#1A1A0C" transform="translate(211,357)"/>
<path d="M0 0 C1.32 0.33 2.64 0.66 4 1 C4 3.64 4 6.28 4 9 C1.3144406 6.3144406 0.93950026 3.62378672 0 0 Z " fill="#302F21" transform="translate(262,231)"/>
<path d="M0 0 C1.32 0.33 2.64 0.66 4 1 C4.33 2.65 4.66 4.3 5 6 C4.01 6.33 3.02 6.66 2 7 C1.34 4.69 0.68 2.38 0 0 Z " fill="#29291A" transform="translate(275,123)"/>
<path d="M0 0 C2.64 0 5.28 0 8 0 C8 0.66 8 1.32 8 2 C3.545 2.495 3.545 2.495 -1 3 C-0.67 2.01 -0.34 1.02 0 0 Z " fill="#1F1E11" transform="translate(286,64)"/>
<path d="M0 0 C1.23556641 0.01740234 1.23556641 0.01740234 2.49609375 0.03515625 C3.32238281 0.04417969 4.14867187 0.05320313 5 0.0625 C5.63808594 0.07410156 6.27617187 0.08570313 6.93359375 0.09765625 C6.93359375 0.75765625 6.93359375 1.41765625 6.93359375 2.09765625 C0.87890625 3.07421875 0.87890625 3.07421875 -1.06640625 3.09765625 C-1.72640625 2.43765625 -2.38640625 1.77765625 -3.06640625 1.09765625 C-2.06640625 0.09765625 -2.06640625 0.09765625 0 0 Z " fill="#2D2D20" transform="translate(329.06640625,36.90234375)"/>
<path d="M0 0 C0.33 0.66 0.66 1.32 1 2 C1.66 2 2.32 2 3 2 C3 2.99 3 3.98 3 5 C2.34 5 1.68 5 1 5 C0.67 5.99 0.34 6.98 0 8 C-0.66 7.34 -1.32 6.68 -2 6 C-1.34 4.02 -0.68 2.04 0 0 Z " fill="#212118" transform="translate(9,445)"/>
<path d="M0 0 C0.66 0 1.32 0 2 0 C2.66 1.98 3.32 3.96 4 6 C2.02 6 0.04 6 -2 6 C-2 5.34 -2 4.68 -2 4 C-1.01 4 -0.02 4 1 4 C0.67 2.68 0.34 1.36 0 0 Z " fill="#212011" transform="translate(300,407)"/>
<path d="M0 0 C0.66 0.33 1.32 0.66 2 1 C1.34 3.31 0.68 5.62 0 8 C-0.66 8 -1.32 8 -2 8 C-1.125 1.125 -1.125 1.125 0 0 Z " fill="#202015" transform="translate(27,398)"/>
<path d="M0 0 C0.66 0.33 1.32 0.66 2 1 C2.40729228 3.32156597 2.74438677 5.6568787 3 8 C2.34 8 1.68 8 1 8 C0.34 5.69 -0.32 3.38 -1 1 C-0.67 0.67 -0.34 0.34 0 0 Z " fill="#222211" transform="translate(315,375)"/>
<path d="M0 0 C0.66 0 1.32 0 2 0 C2.66 1.98 3.32 3.96 4 6 C3.01 6.33 2.02 6.66 1 7 C0.34 5.02 -0.32 3.04 -1 1 C-0.67 0.67 -0.34 0.34 0 0 Z " fill="#17170B" transform="translate(268,170)"/>
<path d="M0 0 C0.66 0.33 1.32 0.66 2 1 C2.40729228 3.32156597 2.74438677 5.6568787 3 8 C2.34 8 1.68 8 1 8 C0.34 5.69 -0.32 3.38 -1 1 C-0.67 0.67 -0.34 0.34 0 0 Z " fill="#262713" transform="translate(241,167)"/>
<path d="M0 0 C0.66 0 1.32 0 2 0 C4.21538462 5.41538462 4.21538462 5.41538462 3.125 8.375 C2.75375 8.91125 2.3825 9.4475 2 10 C0.39644899 6.49223216 -0.22036864 3.85645121 0 0 Z " fill="#2D2D0E" transform="translate(259,146)"/>
<path d="M0 0 C0.66 0.33 1.32 0.66 2 1 C2.40729228 3.32156597 2.74438677 5.6568787 3 8 C2.34 8 1.68 8 1 8 C0.34 5.69 -0.32 3.38 -1 1 C-0.67 0.67 -0.34 0.34 0 0 Z " fill="#232311" transform="translate(269,102)"/>
<path d="M0 0 C2.97 0.495 2.97 0.495 6 1 C6.33 1.99 6.66 2.98 7 4 C4.69 3.67 2.38 3.34 0 3 C0 2.01 0 1.02 0 0 Z " fill="#31311B" transform="translate(346,90)"/>
<path d="M0 0 C0.66 0 1.32 0 2 0 C3.2077558 3.62326739 2.54311128 4.64146369 1 8 C0.34 7.67 -0.32 7.34 -1 7 C-0.67 4.69 -0.34 2.38 0 0 Z " fill="#34321C" transform="translate(159,36)"/>
<path d="M0 0 C0.66 0.33 1.32 0.66 2 1 C2 1.66 2 2.32 2 3 C-0.3125 4.125 -0.3125 4.125 -3 5 C-3.99 4.34 -4.98 3.68 -6 3 C-4.03533587 1.93224776 -2.03144641 0.93446535 0 0 Z " fill="#1B1A0E" transform="translate(408,462)"/>
<path d="M0 0 C0 0.99 0 1.98 0 3 C-2.31 4.32 -4.62 5.64 -7 7 C-6.875 5.1875 -6.875 5.1875 -6 3 C-2.9375 1.25 -2.9375 1.25 0 0 Z " fill="#2B2B23" transform="translate(428,451)"/>
<path d="M0 0 C0.99 0 1.98 0 3 0 C3.1875 2.375 3.1875 2.375 3 5 C2.01 5.66 1.02 6.32 0 7 C0 4.69 0 2.38 0 0 Z " fill="#17180B" transform="translate(77,409)"/>
<path d="M0 0 C0 0.99 0 1.98 0 3 C-2.76264289 3.59732819 -5.16032769 4 -8 4 C-8 3.34 -8 2.68 -8 2 C-5.36 1.34 -2.72 0.68 0 0 Z " fill="#2A2B1D" transform="translate(352,406)"/>
<path d="M0 0 C0.66 0.33 1.32 0.66 2 1 C1.690625 1.763125 1.38125 2.52625 1.0625 3.3125 C0.32106407 5.18789677 -0.36228217 7.08684652 -1 9 C-1.80967438 6.08517222 -2.21845993 4.53886783 -1.0625 1.6875 C-0.711875 1.130625 -0.36125 0.57375 0 0 Z " fill="#29240F" transform="translate(37,371)"/>
<path d="M0 0 C0.66 0.66 1.32 1.32 2 2 C1.625 4.625 1.625 4.625 1 7 C0.01 6.67 -0.98 6.34 -2 6 C-1.34 4.02 -0.68 2.04 0 0 Z " fill="#2C2B0D" transform="translate(98,204)"/>
<path d="M0 0 C2.35953094 2.35953094 2.49141413 3.77895617 3 7 C2.01 7 1.02 7 0 7 C-0.38133299 5.0085944 -0.71325582 3.00720923 -1 1 C-0.67 0.67 -0.34 0.34 0 0 Z " fill="#252417" transform="translate(219,176)"/>
<path d="M0 0 C0.99 0.33 1.98 0.66 3 1 C4.1875 4.0625 4.1875 4.0625 5 7 C3.0625 6.3125 3.0625 6.3125 1 5 C0.25 2.375 0.25 2.375 0 0 Z " fill="#262615" transform="translate(457,114)"/>
<path d="M0 0 C-1.97389657 1.97389657 -3.43730503 2.95890517 -6 4 C-6.66 3.67 -7.32 3.34 -8 3 C-5.45189726 -0.82215411 -4.39145359 -1.46381786 0 0 Z " fill="#191A0F" transform="translate(209,45)"/>
<path d="M0 0 C0.99 0 1.98 0 3 0 C3.625 2.375 3.625 2.375 4 5 C3.34 5.66 2.68 6.32 2 7 C0.5393715 4.35261084 0 3.10551666 0 0 Z " fill="#1E1D17" transform="translate(404,473)"/>
<path d="M0 0 C0.93423645 3.01031744 1.04449911 3.86650268 0 7 C-0.99 7 -1.98 7 -3 7 C-1.125 1.125 -1.125 1.125 0 0 Z " fill="#1D1C0F" transform="translate(38,440)"/>
<path d="M0 0 C0.66 0.33 1.32 0.66 2 1 C1.34 2.98 0.68 4.96 0 7 C-0.66 7 -1.32 7 -2 7 C-1.125 1.125 -1.125 1.125 0 0 Z " fill="#46452F" transform="translate(15,431)"/>
<path d="M0 0 C0.99 0 1.98 0 3 0 C3.625 2.375 3.625 2.375 4 5 C3.34 5.66 2.68 6.32 2 7 C0.5393715 4.35261084 0 3.10551666 0 0 Z " fill="#17170B" transform="translate(357,345)"/>
<path d="M0 0 C0.99 0.495 0.99 0.495 2 1 C2.40729228 3.32156597 2.74438677 5.6568787 3 8 C2.34 8 1.68 8 1 8 C-0.35439668 5.29120665 -0.06501451 2.99066732 0 0 Z " fill="#26250F" transform="translate(286,294)"/>
<path d="M0 0 C0.66 0 1.32 0 2 0 C2.66 2.31 3.32 4.62 4 7 C2.68 6.34 1.36 5.68 0 5 C0 3.35 0 1.7 0 0 Z " fill="#1F1F15" transform="translate(288,225)"/>
<path d="M0 0 C2 3 2 3 2 7 C1.01 6.67 0.02 6.34 -1 6 C-1.8125 4.0625 -1.8125 4.0625 -2 2 C-1.34 1.34 -0.68 0.68 0 0 Z " fill="#1A1809" transform="translate(256,207)"/>
<path d="M0 0 C0.99 0 1.98 0 3 0 C3.33 1.98 3.66 3.96 4 6 C3.01 5.67 2.02 5.34 1 5 C0.67 3.35 0.34 1.7 0 0 Z " fill="#343423" transform="translate(272,184)"/>
<path d="M0 0 C3 3.625 3 3.625 3 7 C2.01 6.67 1.02 6.34 0 6 C-0.38218767 4.34385343 -0.71395102 2.67542976 -1 1 C-0.67 0.67 -0.34 0.34 0 0 Z " fill="#1F1E0D" transform="translate(419,150)"/>
<path d="M0 0 C0.66 0.33 1.32 0.66 2 1 C1.34 3.31 0.68 5.62 0 8 C-1.125 6.25 -1.125 6.25 -2 4 C-1.125 1.75 -1.125 1.75 0 0 Z " fill="#272814" transform="translate(120,145)"/>
<path d="M0 0 C2.1519437 3.22791555 2.20086443 4.28400809 2 8 C1.34 8 0.68 8 0 8 C-0.66 5.69 -1.32 3.38 -2 1 C-1.34 0.67 -0.68 0.34 0 0 Z " fill="#17160C" transform="translate(232,140)"/>
<path d="M0 0 C4.75 0.75 4.75 0.75 7 3 C6.67 3.99 6.34 4.98 6 6 C3.97945196 4.35830472 1.97956942 2.69088222 0 1 C0 0.67 0 0.34 0 0 Z " fill="#2D2414" transform="translate(387,111)"/>
<path d="M0 0 C0 0.99 0 1.98 0 3 C-2.31 3.33 -4.62 3.66 -7 4 C-7 3.34 -7 2.68 -7 2 C-4.35261084 0.5393715 -3.10551666 0 0 0 Z " fill="#282416" transform="translate(255,46)"/>
<path d="M0 0 C0 0.66 0 1.32 0 2 C-2.31 2.33 -4.62 2.66 -7 3 C-7.33 2.34 -7.66 1.68 -8 1 C-5.29120665 -0.35439668 -2.99066732 -0.06501451 0 0 Z " fill="#2B2B19" transform="translate(273,17)"/>
</svg>
